<?xml version="1.0" encoding="UTF-8"?>
<svg version="1.1" xmlns="http://www.w3.org/2000/svg" width="500" height="500">
<path d="M0 0 C0 0.66 0 1.32 0 2 C0.66 2 1.32 2 2 2 C12.72932505 12.3216107 17.95405513 25.85188586 18.29174805 40.62402344 C18.36950036 49.76037707 17.47178433 57.42631038 14 66 C13.69191406 66.77472656 13.38382812 67.54945313 13.06640625 68.34765625 C12.41531235 69.91464302 11.71562263 71.46141135 11 73 C10.34 73 9.68 73 9 73 C8.71125 73.763125 8.4225 74.52625 8.125 75.3125 C7 78 7 78 5 81 C4.34 81 3.68 81 3 81 C2.76539063 81.5878125 2.53078125 82.175625 2.2890625 82.78125 C-1.36292481 89.06709482 -10.37866207 93.31163723 -17 96 C-17.72703125 96.2990625 -18.4540625 96.598125 -19.203125 96.90625 C-30.96276493 100.90008998 -46.74025746 100.98158595 -58.28515625 96.34375 C-64.76340165 93.13725156 -71.46820934 89.70985007 -77 85 C-77 84.34 -77 83.68 -77 83 C-77.66 83 -78.32 83 -79 83 C-79 82.34 -79 81.68 -79 81 C-79.66 81 -80.32 81 -81 81 C-88.33315626 71.90498152 -93.89737751 61.89025204 -93 50 C-89.26512223 50.4979837 -87.18762365 50.87491756 -84 53 C-82.9375 55.42578125 -82.9375 55.42578125 -82 58.3125 C-80.71335128 62.24213962 -79.13896261 65.46949637 -77 69 C-77 69.66 -77 70.32 -77 71 C-76.34 71 -75.68 71 -75 71 C-73.34375 72.71484375 -73.34375 72.71484375 -71.5 74.9375 C-69.11073001 77.92045179 -69.11073001 77.92045179 -66 80 C-66 80.66 -66 81.32 -66 82 C-65.071875 82.28875 -64.14375 82.5775 -63.1875 82.875 C-60 84 -60 84 -57 86 C-57.27207275 85.52361084 -57.54414551 85.04722168 -57.82446289 84.55639648 C-62.1148751 76.16756487 -62.10080675 67.35302114 -62.68945312 58.10351562 C-63.42147074 48.83906336 -64.79409982 40.92550684 -71.8125 34.375 C-72.534375 33.92125 -73.25625 33.4675 -74 33 C-73.52949219 33.61746094 -73.05898437 34.23492187 -72.57421875 34.87109375 C-67.64533223 41.57560398 -64 47.52437781 -64 56 C-74.51607041 55.64946432 -83.66505216 51.11192084 -91.31640625 43.921875 C-99.40214875 34.69174667 -101.20376702 23.43979637 -101.0625 11.5625 C-101.05798828 10.83095703 -101.05347656 10.09941406 -101.04882812 9.34570312 C-101.03718148 7.56376581 -101.01925191 5.78187137 -101 4 C-86.47779282 3.71709986 -72.34981285 8.00256294 -61.6171875 18.15625 C-54.86364147 25.85594499 -53.42394695 36.09188748 -54 46 C-54.27625993 49.34321339 -54.62429932 52.66565646 -55 56 C-53.35 53.03 -51.7 50.06 -50 47 C-49.34 47 -48.68 47 -48 47 C-48 46.34 -48 45.68 -48 45 C-41.36673568 41.44646555 -34.75346971 38.29513912 -27 39 C-26 40 -26 40 -25.98046875 42.15234375 C-26.62247166 50.78909993 -28.45679651 59.82030782 -35 66 C-39.60443157 68.9938686 -43.40222559 70.55977744 -49 70 C-48.34 67.03 -47.68 64.06 -47 61 C-50.75037558 65.71821444 -52.45444417 69.88566029 -52 76 C-50.57651347 80.36132043 -48.49016548 83.98576617 -45 87 C-44.01 87.33 -43.02 87.66 -42 88 C-42.13921875 86.24623047 -42.13921875 86.24623047 -42.28125 84.45703125 C-42.96666412 72.24419786 -42.96666412 72.24419786 -40.39453125 68.93359375 C-38.3125 67.75 -38.3125 67.75 -36.07421875 66.84765625 C-33.67301723 66.05324 -33.67301723 66.05324 -31.625 63.1875 C-27.56500154 59.80416795 -24.17024149 60.65531723 -19 61 C-18.67 56.38 -18.34 51.76 -18 47 C-19.98 47 -21.96 47 -24 47 C-24.93065133 44.39417629 -25.14917407 43.35801776 -24.0625 40.75 C-23.711875 40.1725 -23.36125 39.595 -23 39 C-21.35 39 -19.7 39 -18 39 C-18.33 34.71 -18.66 30.42 -19 26 C-23.95 26 -28.9 26 -34 26 C-34 29.63 -34 33.26 -34 37 C-36 38 -36 38 -42 38 C-42 34.04 -42 30.08 -42 26 C-42.85722656 26.11601562 -43.71445313 26.23203125 -44.59765625 26.3515625 C-53.69617039 27.06959631 -53.69617039 27.06959631 -57.45703125 23.984375 C-62.09788363 17.67054732 -62.09788363 17.67054732 -61.82421875 13 C-60.9880634 9.95655304 -59.90727086 7.41379599 -58.4375 4.625 C-57.98246094 3.75101563 -57.52742188 2.87703125 -57.05859375 1.9765625 C-56.53458984 0.99816406 -56.53458984 0.99816406 -56 0 C-57.79398267 0.95399078 -59.58511655 1.91334026 -61.375 2.875 C-62.87160156 3.67550781 -62.87160156 3.67550781 -64.3984375 4.4921875 C-67.05348395 5.8820138 -67.05348395 5.8820138 -69 8 C-72.80909895 7.67582137 -74.78372163 7.14418558 -78 5 C-75.14203058 -1.85912661 -67.62965933 -6.14277599 -61.08984375 -9.16015625 C-39.82902863 -17.70422214 -18.2208215 -13.38317891 0 0 Z M-44 -1 C-49.2514619 4.3526949 -52.06474944 9.82818911 -54 17 C-50.04 17 -46.08 17 -42 17 C-42 11.06 -42 5.12 -42 -1 C-42.66 -1 -43.32 -1 -44 -1 Z M-34 -1 C-34 4.94 -34 10.88 -34 17 C-30.04 17 -26.08 17 -22 17 C-22.77001227 13.14993864 -23.3261142 10.99223427 -25.0625 7.6875 C-25.42472656 6.99011719 -25.78695312 6.29273438 -26.16015625 5.57421875 C-26.43730469 5.05472656 -26.71445312 4.53523438 -27 4 C-27.66 4 -28.32 4 -29 4 C-29.268125 3.360625 -29.53625 2.72125 -29.8125 2.0625 C-30.88667752 -0.33131686 -30.88667752 -0.33131686 -34 -1 Z M-20 0 C-19.5875 0.94875 -19.175 1.8975 -18.75 2.875 C-16.74452259 7.54805022 -14.87735156 12.27425298 -13 17 C-8.38 17 -3.76 17 1 17 C0.34 15.35 -0.32 13.7 -1 12 C-1.66 12 -2.32 12 -3 12 C-3 11.34 -3 10.68 -3 10 C-3.66 10 -4.32 10 -5 10 C-5 9.34 -5 8.68 -5 8 C-9.50540116 4.31558305 -14.33822218 1.4517379 -20 0 Z M-10 26 C-9.67 30.29 -9.34 34.58 -9 39 C-3.06 39 2.88 39 9 39 C8.5359375 36.339375 8.5359375 36.339375 8.0625 33.625 C7.88847656 32.62726563 7.71445312 31.62953125 7.53515625 30.6015625 C7.12287938 28.03090344 7.12287938 28.03090344 6 26 C0.72 26 -4.56 26 -10 26 Z M-9 48 C-9.23481693 50.18292774 -9.41363323 52.37203174 -9.5625 54.5625 C-9.64628906 55.76003906 -9.73007812 56.95757812 -9.81640625 58.19140625 C-9.87699219 59.11824219 -9.93757813 60.04507813 -10 61 C-7.56065775 61.13501894 -5.12875896 61.23403897 -2.6875 61.3125 C-1.99720703 61.35439453 -1.30691406 61.39628906 -0.59570312 61.43945312 C1.69293125 61.54841587 1.69293125 61.54841587 5 61 C8.42924506 57.00267799 8.66140261 53.07896078 9 48 C7.17883997 46.17883997 4.69328236 46.8676492 2.2734375 46.86328125 C1.14808594 46.86908203 1.14808594 46.86908203 0 46.875 C-0.75023437 46.87113281 -1.50046875 46.86726563 -2.2734375 46.86328125 C-5.93606117 46.52324459 -5.93606117 46.52324459 -9 48 Z M-45 57 C-44 59 -44 59 -44 59 Z M-34 70 C-34 75.94 -34 81.88 -34 88 C-32.35 86.68 -30.7 85.36 -29 84 C-29 83.34 -29 82.68 -29 82 C-28.34 82 -27.68 82 -27 82 C-26.15885829 80.56705502 -25.32734313 79.12845595 -24.5 77.6875 C-24.0359375 76.88699219 -23.571875 76.08648437 -23.09375 75.26171875 C-21.78232114 72.9685882 -21.78232114 72.9685882 -22 70 C-25.96 70 -29.92 70 -34 70 Z M-13 70 C-14.175625 72.84625 -14.175625 72.84625 -15.375 75.75 C-16.81239108 79.22999945 -18.26400675 82.6578074 -20 86 C-13.13178438 84.9010855 -6.70006738 79.94437782 -2 75 C-1.01 73.35 -0.02 71.7 1 70 C-3.62 70 -8.24 70 -13 70 Z " fill="#4D9611" transform="translate(288,149)"/>
<path d="M0 0 C6.6 0 13.2 0 20 0 C26.64785682 12.06462905 32.41118372 24.41308876 38 37 C40.81763477 33.61331246 42.53602382 29.90223088 44.28515625 25.8984375 C44.58691269 25.22076324 44.88866913 24.54308899 45.1995697 23.84487915 C46.15869781 21.69035221 47.11131399 19.53304388 48.0625 17.375 C49.3189401 14.52626796 50.58152065 11.68037109 51.84765625 8.8359375 C52.13415543 8.18072113 52.4206546 7.52550476 52.71583557 6.85043335 C53.92123544 4.1424972 54.88444745 2.11555255 57 0 C59.06298828 -0.22705078 59.06298828 -0.22705078 61.5703125 -0.1953125 C62.91416016 -0.18564453 62.91416016 -0.18564453 64.28515625 -0.17578125 C65.69087891 -0.15064453 65.69087891 -0.15064453 67.125 -0.125 C68.06988281 -0.11597656 69.01476562 -0.10695312 69.98828125 -0.09765625 C72.32577292 -0.07404522 74.66276123 -0.04111516 77 0 C77.02312504 9.37035938 77.04091591 18.74070901 77.05181217 28.11109066 C77.05704065 32.46168459 77.06413765 36.81225907 77.07543945 41.1628418 C77.08626959 45.35790258 77.0922771 49.55294459 77.09487724 53.74801826 C77.09673126 55.35206968 77.10035144 56.95612003 77.10573006 58.5601635 C77.11294219 60.79916515 77.11399087 63.0380883 77.11352539 65.27709961 C77.115746 66.55395126 77.11796661 67.83080292 77.12025452 69.14634705 C77 72 77 72 76 73 C73.3226862 73.09981214 70.67695825 73.13879875 68 73.125 C66.87464844 73.13080078 66.87464844 73.13080078 65.7265625 73.13671875 C60.12661053 73.12661053 60.12661053 73.12661053 59 72 C58.91134792 69.1156618 58.88478704 66.25537842 58.90234375 63.37109375 C58.9037587 62.50686295 58.90517365 61.64263214 58.90663147 60.75221252 C58.91224761 57.98060708 58.92480281 55.2090812 58.9375 52.4375 C58.94251292 50.5631522 58.94707619 48.68880315 58.95117188 46.81445312 C58.96222228 42.20960456 58.9794977 37.60481579 59 33 C58.72325439 33.589021 58.44650879 34.17804199 58.16137695 34.78491211 C56.88162052 37.50396174 55.59708923 40.22073044 54.3125 42.9375 C53.65991211 44.32678711 53.65991211 44.32678711 52.99414062 45.74414062 C50.20560771 51.63104345 47.22260318 57.3386701 44 63 C40.37 63 36.74 63 33 63 C31.62314891 60.4176393 30.24851061 57.83413695 28.875 55.25 C28.49601562 54.53972656 28.11703125 53.82945312 27.7265625 53.09765625 C24.37516321 46.78585425 21.17626545 40.40145925 18 34 C17.97494385 35.145896 17.9498877 36.29179199 17.92407227 37.47241211 C17.83016894 41.70853598 17.72990725 45.94448928 17.62768555 50.18041992 C17.5842718 52.01664247 17.54260161 53.85290708 17.50268555 55.68920898 C17.44513831 58.32288311 17.38140002 60.95634421 17.31640625 63.58984375 C17.29133751 64.82890724 17.29133751 64.82890724 17.26576233 66.09300232 C17.11387171 71.88612829 17.11387171 71.88612829 16 73 C13.48863896 73.09975032 11.01096585 73.13882183 8.5 73.125 C7.79746094 73.12886719 7.09492188 73.13273437 6.37109375 73.13671875 C1.12661378 73.12661378 1.12661378 73.12661378 0 72 C-0.09436529 69.76070114 -0.11742327 67.5183825 -0.11352539 65.27709961 C-0.11367142 64.5746965 -0.11381744 63.8722934 -0.1139679 63.14860535 C-0.11326872 60.81648722 -0.10547617 58.484448 -0.09765625 56.15234375 C-0.09579208 54.53951562 -0.09436818 52.92668693 -0.09336853 51.31385803 C-0.08954323 47.06084643 -0.07971285 42.80786876 -0.06866455 38.55487061 C-0.05845069 34.2182257 -0.05387096 29.88157533 -0.04882812 25.54492188 C-0.03809059 17.02993058 -0.0204937 8.51497341 0 0 Z " fill="#E7E6E2" transform="translate(144,256)"/>
<path d="M0 0 C6.6 0 13.2 0 20 0 C25.51065643 11.35529204 29.49323561 23.24589655 33.3828125 35.23828125 C35.51031609 41.79473371 37.85169887 48.05951538 40.79296875 54.296875 C46.48755187 67.04979253 46.48755187 67.04979253 45 73 C39.39 73 33.78 73 28 73 C23 60.25 23 60.25 23 58 C14.42 58 5.84 58 -3 58 C-3.66 60.97 -4.32 63.94 -5 67 C-5.99 68.98 -6.98 70.96 -8 73 C-13.61 73 -19.22 73 -25 73 C-26.16346063 69.5096181 -25.83232246 68.86666413 -24.55078125 65.546875 C-24.20305664 64.63284912 -23.85533203 63.71882324 -23.49707031 62.77709961 C-23.10616211 61.77815674 -22.71525391 60.77921387 -22.3125 59.75 C-21.91256836 58.70529541 -21.51263672 57.66059082 -21.10058594 56.58422852 C-19.74481866 53.05175884 -18.37405481 49.52539494 -17 46 C-16.49065603 44.69192047 -15.98138004 43.38381447 -15.47216797 42.07568359 C-15.21433029 41.41347809 -14.95649261 40.75127258 -14.69084167 40.06900024 C-13.89893726 38.03421583 -13.10802859 35.9990461 -12.31713867 33.96386719 C-11.30080434 31.34898712 -10.2783342 28.73663939 -9.2512207 26.12597656 C-5.87926503 17.49259265 -2.87260218 8.81175962 0 0 Z M10 22 C9.20788071 23.89564426 8.41632424 25.79152371 7.625 27.6875 C7.18414062 28.74324219 6.74328125 29.79898437 6.2890625 30.88671875 C5.86367188 31.91410156 5.43828125 32.94148438 5 34 C4.61585938 34.87269531 4.23171875 35.74539063 3.8359375 36.64453125 C2.77703025 39.2117071 2.77703025 39.2117071 3 43 C5.48754786 44.24377393 7.22655301 44.13306235 10 44.125 C11.3303125 44.12886719 11.3303125 44.12886719 12.6875 44.1328125 C15.02676966 44.15127902 15.02676966 44.15127902 17 43 C16.04968099 35.77757552 13.89476266 28.68022151 11 22 C10.67 22 10.34 22 10 22 Z " fill="#E9E7E4" transform="translate(313,256)"/>
<path d="M0 0 C5.94 0 11.88 0 18 0 C18.04958405 7.25910455 18.08580696 14.51810963 18.10986328 21.77734375 C18.11989626 24.24480915 18.13352573 26.71226273 18.15087891 29.1796875 C18.17524592 32.73440474 18.18651042 36.28896422 18.1953125 39.84375 C18.20563507 40.93989624 18.21595764 42.03604248 18.22659302 43.16540527 C18.22796057 52.58472779 17.05476787 60.47335486 11 68 C2.91658204 74.67760614 -5.91151695 74.73204412 -16 74 C-22.20245828 72.84939904 -26.55404098 70.44595902 -31 66 C-31 65.34 -31 64.68 -31 64 C-31.66 64 -32.32 64 -33 64 C-35.55494622 58.40196743 -35.59814209 53.09484493 -36 47 C-30.06 47 -24.12 47 -18 47 C-17.34 49.31 -16.68 51.62 -16 54 C-14.95625978 56.04451019 -14.95625978 56.04451019 -13 57 C-9.13051412 57.49248002 -6.92495309 57.60852177 -3.625 55.4375 C-0.07180206 50.10770308 -0.87468886 42.9840223 -0.9375 36.77734375 C-0.94128662 35.91363663 -0.94507324 35.0499295 -0.94897461 34.16004944 C-0.96111394 31.41914699 -0.97973847 28.67835369 -1 25.9375 C-1.02667845 22.32161719 -1.04662958 18.70578837 -1.0625 15.08984375 C-1.07079834 14.26781967 -1.07909668 13.44579559 -1.08764648 12.59886169 C-1.09260132 11.43218712 -1.09260132 11.43218712 -1.09765625 10.24194336 C-1.10289307 9.56578476 -1.10812988 8.88962616 -1.11352539 8.19297791 C-0.97103923 5.4405627 -0.45310018 2.71860111 0 0 Z " fill="#E5E3E0" transform="translate(266,256)"/>
<path d="M0 0 C1.429049 0.1933653 2.85506622 0.41032443 4.27734375 0.6484375 C4.99728516 0.74511719 5.71722656 0.84179688 6.45898438 0.94140625 C10.00681147 1.46188599 12.19327861 2.00906074 15.21484375 4.0234375 C15.21484375 3.3634375 15.21484375 2.7034375 15.21484375 2.0234375 C19.96484375 2.8984375 19.96484375 2.8984375 22.21484375 4.0234375 C22.54484375 5.0134375 22.87484375 6.0034375 23.21484375 7.0234375 C25.02033042 8.04017811 25.02033042 8.04017811 27.15234375 8.8359375 C30.55458245 10.40011522 31.05837665 10.68442545 32.71484375 14.2734375 C32.96234375 15.6346875 32.96234375 15.6346875 33.21484375 17.0234375 C31.40234375 17.6484375 31.40234375 17.6484375 29.21484375 18.0234375 C25.60830336 15.61907724 25.36031443 14.07664143 24.21484375 10.0234375 C22.89484375 10.0234375 21.57484375 10.0234375 20.21484375 10.0234375 C19.88484375 10.6834375 19.55484375 11.3434375 19.21484375 12.0234375 C16.21484375 11.0234375 16.21484375 11.0234375 13.21484375 9.0234375 C13.55515625 10.415625 13.55515625 10.415625 13.90234375 11.8359375 C14.21484375 15.0234375 14.21484375 15.0234375 12.77734375 16.8984375 C12.26171875 17.2696875 11.74609375 17.6409375 11.21484375 18.0234375 C6.3009151 16.65845732 4.83075657 14.26302034 2.21484375 10.0234375 C1.55484375 9.6934375 0.89484375 9.3634375 0.21484375 9.0234375 C0.21484375 15.9534375 0.21484375 22.8834375 0.21484375 30.0234375 C4.83484375 30.0234375 9.45484375 30.0234375 14.21484375 30.0234375 C14.54484375 28.7034375 14.87484375 27.3834375 15.21484375 26.0234375 C16.20484375 26.0234375 17.19484375 26.0234375 18.21484375 26.0234375 C18.54484375 27.3434375 18.87484375 28.6634375 19.21484375 30.0234375 C20.53484375 30.3534375 21.85484375 30.6834375 23.21484375 31.0234375 C22.88484375 32.6734375 22.55484375 34.3234375 22.21484375 36.0234375 C28.15484375 36.0234375 34.09484375 36.0234375 40.21484375 36.0234375 C40.21484375 36.3534375 40.21484375 36.6834375 40.21484375 37.0234375 C34.93484375 37.0234375 29.65484375 37.0234375 24.21484375 37.0234375 C24.54484375 37.6834375 24.87484375 38.3434375 25.21484375 39.0234375 C25.28434916 40.56367746 25.29936732 42.10678738 25.27734375 43.6484375 C25.26832031 44.46570313 25.25929688 45.28296875 25.25 46.125 C25.23839844 46.75148437 25.22679687 47.37796875 25.21484375 48.0234375 C24.88484375 48.0234375 24.55484375 48.0234375 24.21484375 48.0234375 C23.71984375 44.0634375 23.71984375 44.0634375 23.21484375 40.0234375 C21.89484375 39.6934375 20.57484375 39.3634375 19.21484375 39.0234375 C19.21484375 42.9834375 19.21484375 46.9434375 19.21484375 51.0234375 C18.88484375 51.0234375 18.55484375 51.0234375 18.21484375 51.0234375 C17.88484375 46.4034375 17.55484375 41.7834375 17.21484375 37.0234375 C11.60484375 37.0234375 5.99484375 37.0234375 0.21484375 37.0234375 C0.21484375 40.6534375 0.21484375 44.2834375 0.21484375 48.0234375 C-1.43515625 48.0234375 -3.08515625 48.0234375 -4.78515625 48.0234375 C-4.78515625 44.0634375 -4.78515625 40.1034375 -4.78515625 36.0234375 C-5.44515625 35.6934375 -6.10515625 35.3634375 -6.78515625 35.0234375 C-6.25921875 34.0953125 -6.25921875 34.0953125 -5.72265625 33.1484375 C-5.41328125 32.4471875 -5.10390625 31.7459375 -4.78515625 31.0234375 C-5.11515625 30.3634375 -5.44515625 29.7034375 -5.78515625 29.0234375 C-5.86888284 27.50195424 -5.89245652 25.97687972 -5.8828125 24.453125 C-5.87797852 23.10927734 -5.87797852 23.10927734 -5.87304688 21.73828125 C-5.86466797 20.80113281 -5.85628906 19.86398438 -5.84765625 18.8984375 C-5.84314453 17.95355469 -5.83863281 17.00867188 -5.83398438 16.03515625 C-5.82217982 13.69785363 -5.80571384 11.36067689 -5.78515625 9.0234375 C-6.77515625 9.3534375 -7.76515625 9.6834375 -8.78515625 10.0234375 C-8.78515625 9.0334375 -8.78515625 8.0434375 -8.78515625 7.0234375 C-8.12515625 7.0234375 -7.46515625 7.0234375 -6.78515625 7.0234375 C-7.11515625 6.0334375 -7.44515625 5.0434375 -7.78515625 4.0234375 C-5.28151416 0.61116291 -4.32827769 0.02680048 0 0 Z " fill="#4F9A0F" transform="translate(252.78515625,136.9765625)"/>
<path d="M0 0 C4.66861981 1.60483806 9.09258167 3.97490194 13 7 C13 7.66 13 8.32 13 9 C13.66 9 14.32 9 15 9 C21.45400872 15.44132894 26.84333631 23.03869054 29 32 C28.6171875 35.35546875 28.6171875 35.35546875 28 38 C27.01 37.67 26.02 37.34 25 37 C25 34.69 25 32.38 25 30 C24.67 30.66 24.34 31.32 24 32 C23.34 32 22.68 32 22 32 C22.09539062 32.62648437 22.19078125 33.25296875 22.2890625 33.8984375 C22.39992188 34.71570313 22.51078125 35.53296875 22.625 36.375 C22.74101562 37.18710938 22.85703125 37.99921875 22.9765625 38.8359375 C22.98816406 39.90714844 22.98816406 39.90714844 23 41 C22.34 41.66 21.68 42.32 21 43 C20.01 38.05 20.01 38.05 19 33 C10.585 33.495 10.585 33.495 2 34 C1.67 33.34 1.34 32.68 1 32 C0.34 31.67 -0.32 31.34 -1 31 C-0.34 29.35 0.32 27.7 1 26 C-0.32 25.67 -1.64 25.34 -3 25 C-3.33 23.68 -3.66 22.36 -4 21 C-4.99 21.33 -5.98 21.66 -7 22 C-7.33 22.99 -7.66 23.98 -8 25 C-12.62 25 -17.24 25 -22 25 C-22 18.07 -22 11.14 -22 4 C-21.01 4.33 -20.02 4.66 -19 5 C-19.99 5.495 -19.99 5.495 -21 6 C-21 11.94 -21 17.88 -21 24 C-17.04 24 -13.08 24 -9 24 C-9.825 22.39125 -10.65 20.7825 -11.5 19.125 C-14 14.25 -14 14.25 -14 12 C-12.68 11.67 -11.36 11.34 -10 11 C-9.67 8.69 -9.34 6.38 -9 4 C-7.35 4 -5.7 4 -4 4 C-4.33 4.66 -4.66 5.32 -5 6 C-4.34 6.33 -3.68 6.66 -3 7 C-2.67 6.01 -2.34 5.02 -2 4 C0.475 4.495 0.475 4.495 3 5 C3.33 6.98 3.66 8.96 4 11 C5.65 11 7.3 11 9 11 C9 10.01 9 9.02 9 8 C9 7.34 9 6.68 9 6 C8.2575 5.71125 7.515 5.4225 6.75 5.125 C4.43260203 4.17697356 2.22082885 3.15154089 0 2 C0 1.34 0 0.68 0 0 Z M-7 7 C-6.5875 7.94875 -6.175 8.8975 -5.75 9.875 C-3.74452259 14.54805022 -1.87735156 19.27425298 0 24 C4.62 24 9.24 24 14 24 C13.34 22.35 12.68 20.7 12 19 C11.34 19 10.68 19 10 19 C10 18.34 10 17.68 10 17 C9.34 17 8.68 17 8 17 C8 16.34 8 15.68 8 15 C3.49459884 11.31558305 -1.33822218 8.4517379 -7 7 Z " fill="#4D9910" transform="translate(275,142)"/>
<path d="M0 0 C0.33 0 0.66 0 1 0 C1.33 3.3 1.66 6.6 2 10 C4.97 10.495 4.97 10.495 8 11 C8 11.99 8 12.98 8 14 C12.95 13.67 17.9 13.34 23 13 C23.495 11.5975 23.99 10.195 24.5 8.75 C24.7784375 7.96109375 25.056875 7.1721875 25.34375 6.359375 C26.17864861 3.76587262 26.17864861 3.76587262 26 0 C26.66 0 27.32 0 28 0 C28.0272415 1.41655793 28.04650467 2.83327045 28.0625 4.25 C28.07410156 5.03890625 28.08570313 5.8278125 28.09765625 6.640625 C28.00130042 8.96858185 27.81626259 10.81708062 27 13 C23.95318939 15.03120707 23.39881676 15.24659875 19.98828125 15.1953125 C19.23095703 15.18886719 18.47363281 15.18242187 17.69335938 15.17578125 C16.51483398 15.15064453 16.51483398 15.15064453 15.3125 15.125 C14.51521484 15.11597656 13.71792969 15.10695312 12.89648438 15.09765625 C10.930861 15.07411585 8.96539225 15.03824547 7 15 C6.67 17.31 6.34 19.62 6 22 C10.29 22 14.58 22 19 22 C19 22.33 19 22.66 19 23 C14.38 23 9.76 23 5 23 C4.67 24.65 4.34 26.3 4 28 C2.74887811 30.65763791 1.36184445 33.21173964 -0.0390625 35.79296875 C-0.51472656 36.88544922 -0.51472656 36.88544922 -1 38 C-0.67 38.66 -0.34 39.32 0 40 C-0.66 40.66 -1.32 41.32 -2 42 C-2.66 41.67 -3.32 41.34 -4 41 C-3.835 40.319375 -3.67 39.63875 -3.5 38.9375 C-2.92910941 35.5835178 -2.93340977 32.39610195 -3 29 C-3.66 29 -4.32 29 -5 29 C-5.33 29.99 -5.66 30.98 -6 32 C-7 29 -7 29 -5.5625 25.8125 C-5.046875 24.884375 -4.53125 23.95625 -4 23 C-7.96 23 -11.92 23 -16 23 C-15.01 22.34 -14.02 21.68 -13 21 C-14.32 20.67 -15.64 20.34 -17 20 C-12.42071882 14.21564482 -12.42071882 14.21564482 -8.375 13.6015625 C-5.91317106 13.622544 -3.45386553 13.80103793 -1 14 C-0.67 9.38 -0.34 4.76 0 0 Z " fill="#4C8C15" transform="translate(270,196)"/>
<path d="M0 0 C1.11375 0.3403125 1.11375 0.3403125 2.25 0.6875 C2.25 3.02083333 2.25 5.35416667 2.25 7.6875 C3.57 8.0175 4.89 8.3475 6.25 8.6875 C4.6 12.3175 2.95 15.9475 1.25 19.6875 C5.87 19.6875 10.49 19.6875 15.25 19.6875 C15.58 20.6775 15.91 21.6675 16.25 22.6875 C15.59 23.3475 14.93 24.0075 14.25 24.6875 C15.08333333 26.85416667 15.08333333 26.85416667 17.25 27.6875 C16.59 27.6875 15.93 27.6875 15.25 27.6875 C15.25 31.3175 15.25 34.9475 15.25 38.6875 C16.9 38.6875 18.55 38.6875 20.25 38.6875 C20.25 35.0575 20.25 31.4275 20.25 27.6875 C25.86 27.6875 31.47 27.6875 37.25 27.6875 C36.755 29.1725 36.755 29.1725 36.25 30.6875 C36.25 30.0275 36.25 29.3675 36.25 28.6875 C31.3 28.6875 26.35 28.6875 21.25 28.6875 C21.25 32.3175 21.25 35.9475 21.25 39.6875 C19.25 40.6875 19.25 40.6875 13.25 40.6875 C13.25 36.7275 13.25 32.7675 13.25 28.6875 C11.96416016 28.86152344 11.96416016 28.86152344 10.65234375 29.0390625 C1.55382961 29.75709631 1.55382961 29.75709631 -2.20703125 26.671875 C-6.84788363 20.35804732 -6.84788363 20.35804732 -6.57421875 15.6875 C-5.7380634 12.64405304 -4.65727086 10.10129599 -3.1875 7.3125 C-2.73246094 6.43851563 -2.27742187 5.56453125 -1.80859375 4.6640625 C-1.45925781 4.01179687 -1.10992187 3.35953125 -0.75 2.6875 C-2.73 3.3475 -4.71 4.0075 -6.75 4.6875 C-6.75 2.6875 -6.75 2.6875 -5.0625 1 C-2.75 -0.3125 -2.75 -0.3125 0 0 Z " fill="#4D9013" transform="translate(232.75,146.3125)"/>
<path d="M0 0 C3.9166043 -0.0580966 7.83309763 -0.09362893 11.75 -0.125 C12.86117188 -0.14175781 13.97234375 -0.15851563 15.1171875 -0.17578125 C16.72207031 -0.18544922 16.72207031 -0.18544922 18.359375 -0.1953125 C19.34389648 -0.20578613 20.32841797 -0.21625977 21.34277344 -0.22705078 C24.10606671 0.00906303 25.71864013 0.4368946 28 2 C29.16935232 6.04775803 28.85181088 8.95389832 28 13 C28.36856864 15.23167185 28.36856864 15.23167185 29 17 C27.68 17.33 26.36 17.66 25 18 C24.01 16.68 23.02 15.36 22 14 C21.34 15.32 20.68 16.64 20 18 C18.68 18 17.36 18 16 18 C15.95101563 16.92878906 15.90203125 15.85757812 15.8515625 14.75390625 C15.77654706 13.35674361 15.7009987 11.9596095 15.625 10.5625 C15.5940625 9.85544922 15.563125 9.14839844 15.53125 8.41992188 C15.42719371 6.60760812 15.22080108 4.80182012 15 3 C14.34 2.67 13.68 2.34 13 2 C12.67 2.99 12.34 3.98 12 5 C10.68 5 9.36 5 8 5 C8 9.29 8 13.58 8 18 C6.68 17.67 5.36 17.34 4 17 C4 13.04 4 9.08 4 5 C2.68 4.67 1.36 4.34 0 4 C0 2.68 0 1.36 0 0 Z M21 5 C21 5.66 21 6.32 21 7 C21.99 6.67 22.98 6.34 24 6 C23.01 5.67 22.02 5.34 21 5 Z " fill="#BAB7B6" transform="translate(250,343)"/>
<path d="M0 0 C0.99 0 1.98 0 3 0 C3.33 1.32 3.66 2.64 4 4 C5.32 4.33 6.64 4.66 8 5 C7.67 6.65 7.34 8.3 7 10 C12.94 10 18.88 10 25 10 C25 10.33 25 10.66 25 11 C19.72 11 14.44 11 9 11 C9.33 11.66 9.66 12.32 10 13 C10.06950541 14.54023996 10.08452357 16.08334988 10.0625 17.625 C10.05347656 18.44226563 10.04445313 19.25953125 10.03515625 20.1015625 C10.02355469 20.72804687 10.01195312 21.35453125 10 22 C9.67 22 9.34 22 9 22 C8.67 19.36 8.34 16.72 8 14 C6.68 13.67 5.36 13.34 4 13 C4 16.96 4 20.92 4 25 C3.67 25 3.34 25 3 25 C2.67 20.38 2.34 15.76 2 11 C-3.61 11 -9.22 11 -15 11 C-15 14.63 -15 18.26 -15 22 C-15.33 22 -15.66 22 -16 22 C-16.33 16.39 -16.66 10.78 -17 5 C-13.99686252 3.49843126 -11.20932478 3.90718796 -7.875 3.9375 C-6.59367187 3.94652344 -5.31234375 3.95554688 -3.9921875 3.96484375 C-3.00476563 3.97644531 -2.01734375 3.98804688 -1 4 C-0.67 2.68 -0.34 1.36 0 0 Z " fill="#4E9B0C" transform="translate(268,163)"/>
<path d="M0 0 C2.375 0.125 2.375 0.125 5 1 C6.8125 3.5625 6.8125 3.5625 8 6 C8.33 4.02 8.66 2.04 9 0 C10.65 0 12.3 0 14 0 C14 5.61 14 11.22 14 17 C12.68 17.33 11.36 17.66 10 18 C8.35 16.02 6.7 14.04 5 12 C4.34 13.98 3.68 15.96 3 18 C1.68 17.67 0.36 17.34 -1 17 C-1.02684679 14.35409986 -1.04676357 11.70846904 -1.0625 9.0625 C-1.07087891 8.30775391 -1.07925781 7.55300781 -1.08789062 6.77539062 C-1.09652441 4.85005687 -1.05224333 2.92464419 -1 1 C-0.67 0.67 -0.34 0.34 0 0 Z " fill="#A9A8A6" transform="translate(327,343)"/>
<path d="M0 0 C-0.99 2.31 -1.98 4.62 -3 7 C-2.34 7.33 -1.68 7.66 -1 8 C-0.5859375 10.28515625 -0.5859375 10.28515625 -0.375 13.0625 C-0.30023438 13.98160156 -0.22546875 14.90070313 -0.1484375 15.84765625 C-0.09945312 16.55792969 -0.05046875 17.26820313 0 18 C-0.99 17.67 -1.98 17.34 -3 17 C-3 17.99 -3 18.98 -3 20 C-5.38564077 19.42415568 -7.66682784 18.77772405 -10 18 C-10 17.01 -10 16.02 -10 15 C-10.99 15 -11.98 15 -13 15 C-13.99 16.485 -13.99 16.485 -15 18 C-15.66 18 -16.32 18 -17 18 C-17.66 16.35 -18.32 14.7 -19 13 C-15.55384615 8.2 -15.55384615 8.2 -12.75 7.1875 C-11.88375 7.0946875 -11.88375 7.0946875 -11 7 C-11.66 5.68 -12.32 4.36 -13 3 C-8.44573816 0.33409063 -5.26053037 -0.31563182 0 0 Z " fill="#519217" transform="translate(255,190)"/>
<path d="M0 0 C6.45669201 5.50717848 10.99465977 13.77810505 13 22 C13 23.32 13 24.64 13 26 C4.27973846 25.70932462 -3.883557 22.84337878 -10.35546875 16.80078125 C-10.89816406 16.20652344 -11.44085938 15.61226562 -12 15 C-4.28571429 16.71428571 -4.28571429 16.71428571 -2 19 C-1.01 17.02 -0.02 15.04 1 13 C1.99 13.33 2.98 13.66 4 14 C3.67 14.66 3.34 15.32 3 16 C4.32 16 5.64 16 7 16 C6.67 14.02 6.34 12.04 6 10 C5.05125 10.495 4.1025 10.99 3.125 11.5 C0 13 0 13 -2 13 C-2.625 11.125 -2.625 11.125 -3 9 C-2.34 8.34 -1.68 7.68 -1 7 C-1 6.01 -1 5.02 -1 4 C-0.6937566 2.66018514 -0.36548445 1.32488113 0 0 Z " fill="#4C8E15" transform="translate(211,179)"/>
<path d="M0 0 C2.81563452 0.43880019 4.0997268 1.31362435 6.10546875 3.328125 C6.75 5.703125 6.75 5.703125 6.91796875 8.328125 C6.98628906 9.194375 7.05460938 10.060625 7.125 10.953125 C7.10546875 13.328125 7.10546875 13.328125 6.10546875 16.328125 C2.46641185 19.09380824 -1.53827114 18.5423673 -5.89453125 18.328125 C-7.71569128 16.50696497 -7.02688205 14.02140736 -7.03125 11.6015625 C-7.02738281 10.85132813 -7.02351562 10.10109375 -7.01953125 9.328125 C-7.02339844 8.57789063 -7.02726563 7.82765625 -7.03125 7.0546875 C-7.01906333 0.30327123 -6.7493826 0.25326013 0 0 Z " fill="#F8F2F1" transform="translate(200.89453125,342.671875)"/>
<path d="M0 0 C1.875 1.125 1.875 1.125 3 3 C4.10569271 7.5928774 4.47851922 10.86913463 2 15 C-0.59920651 17.04223369 -1.80361102 17.0196389 -5.125 16.6875 C-8 16 -8 16 -10 15 C-10 14.34 -10 13.68 -10 13 C-10.66 13 -11.32 13 -12 13 C-12.77235138 4.00639725 -12.77235138 4.00639725 -9.9375 0.3125 C-6.11518198 -1.39534422 -4.00116096 -1.1114336 0 0 Z M-6 4 C-6.33 5.98 -6.66 7.96 -7 10 C-6.01 10.495 -6.01 10.495 -5 11 C-5 9.35 -5 7.7 -5 6 C-4.01 5.67 -3.02 5.34 -2 5 C-3.32 4.67 -4.64 4.34 -6 4 Z " fill="#C0BDBD" transform="translate(155,344)"/>
<path d="M0 0 C0 0.66 0 1.32 0 2 C0.66 2 1.32 2 2 2 C2.2236337 3.41433206 2.42826476 4.83167618 2.625 6.25 C2.74101562 7.03890625 2.85703125 7.8278125 2.9765625 8.640625 C3.00356945 11.35932494 2.44538334 12.72227522 1 15 C-1.56265486 16.92199114 -2.83198949 17.01028636 -6.0625 16.8125 C-9.05890525 15.98370706 -10.15408683 15.42883312 -12 13 C-13.52846661 9.94306678 -13.23242445 7.37015453 -13 4 C-9.80044503 -1.78967091 -5.98361722 -1.01608594 0 0 Z M-7 4 C-8.35618499 5.12534105 -8.35618499 5.12534105 -8.0625 8.0625 C-8.041875 9.031875 -8.02125 10.00125 -8 11 C-7.34 11 -6.68 11 -6 11 C-5.87625 10.360625 -5.7525 9.72125 -5.625 9.0625 C-5.41875 8.381875 -5.2125 7.70125 -5 7 C-4.34 6.67 -3.68 6.34 -3 6 C-3 5.34 -3 4.68 -3 4 C-4.32 4 -5.64 4 -7 4 Z " fill="#B2AFA9" transform="translate(357,344)"/>
<path d="M0 0 C1.70703125 1.22265625 1.70703125 1.22265625 3 3 C3.29296875 5.48046875 3.29296875 5.48046875 3.1875 8.1875 C3.16042969 9.08855469 3.13335937 9.98960937 3.10546875 10.91796875 C3.07066406 11.60503906 3.03585938 12.29210937 3 13 C2.34 13 1.68 13 1 13 C1 13.66 1 14.32 1 15 C-1.55503162 16.67059759 -2.9038633 17.0040057 -6 16.875 C-9.57231176 15.83307574 -10.93095202 15.10357196 -13 12 C-13.70910553 8.11983826 -13.56618837 5.05149269 -11.6875 1.5625 C-8.02890822 -1.82508498 -4.56441173 -0.97808823 0 0 Z M-7 4 C-7.33 4.33 -7.66 4.66 -8 5 C-7.71269945 7.33944736 -7.38063221 9.6739143 -7 12 C-5.35 11.67 -3.7 11.34 -2 11 C-2 9.02 -2 7.04 -2 5 C-3.65614657 4.61781233 -5.32457024 4.28604898 -7 4 Z " fill="#A8A7A8" transform="translate(188,344)"/>
<path d="M0 0 C0.99 0.33 1.98 0.66 3 1 C2.01 1.495 2.01 1.495 1 2 C1 7.94 1 13.88 1 20 C4.96 20 8.92 20 13 20 C12.175 18.39125 11.35 16.7825 10.5 15.125 C8 10.25 8 10.25 8 8 C9.32 7.67 10.64 7.34 12 7 C12.33 4.69 12.66 2.38 13 0 C14.65 0 16.3 0 18 0 C17.61070312 0.53625 17.22140625 1.0725 16.8203125 1.625 C15.68048835 4.0955611 15.68048835 4.0955611 17.1171875 6.875 C17.69726562 7.90625 18.27734375 8.9375 18.875 10 C22 15.60538117 22 15.60538117 22 20 C26.29 20 30.58 20 35 20 C35 20.33 35 20.66 35 21 C32.73122896 21.24875561 30.45980265 21.47339246 28.1875 21.6875 C26.92292969 21.81511719 25.65835937 21.94273437 24.35546875 22.07421875 C21 22 21 22 19.05078125 20.64453125 C18 19 18 19 18 17 C17.01 17.33 16.02 17.66 15 18 C14.67 18.99 14.34 19.98 14 21 C9.38 21 4.76 21 0 21 C0 14.07 0 7.14 0 0 Z " fill="#447E12" transform="translate(253,146)"/>
<path d="M0 0 C2.625 -0.1875 2.625 -0.1875 5 0 C10.55580866 11.52164009 10.55580866 11.52164009 11 17 C9.68 17.33 8.36 17.66 7 18 C6.34 17.01 5.68 16.02 5 15 C2.43717258 14.27034634 2.43717258 14.27034634 0 14 C-0.66 15.32 -1.32 16.64 -2 18 C-3.32 17.67 -4.64 17.34 -6 17 C-5.25862596 13.95683607 -4.43794273 10.94484988 -3.5625 7.9375 C-3.31628906 7.08027344 -3.07007813 6.22304688 -2.81640625 5.33984375 C-2 3 -2 3 0 0 Z M2 8 C2 8.66 2 9.32 2 10 C2.66 9.67 3.32 9.34 4 9 C3.34 8.67 2.68 8.34 2 8 Z " fill="#928F8E" transform="translate(287,343)"/>
<path d="M0 0 C7.875 0 7.875 0 11 1 C11 1.66 11 2.32 11 3 C11.66 3 12.32 3 13 3 C14.32670643 10.11597084 14.32670643 10.11597084 12.9375 13.875 C10.44598459 16.60762981 8.60872707 17.27825459 5 18 C3.35 17.67 1.7 17.34 0 17 C0 11.39 0 5.78 0 0 Z M4 5 C4 7.64 4 10.28 4 13 C5.32 13 6.64 13 8 13 C8.67801034 10.09926819 8.67801034 10.09926819 9 7 C8.34 6.34 7.68 5.68 7 5 C6.01 5 5.02 5 4 5 Z " fill="#CAC7C7" transform="translate(301,343)"/>
<path d="M0 0 C1.65 0 3.3 0 5 0 C7.8751252 5.90377651 9.83805848 11.53287812 11 18 C8.5625 17.625 8.5625 17.625 6 17 C5.67 16.34 5.34 15.68 5 15 C2.47266765 14.34444881 2.47266765 14.34444881 0 14 C-0.66 15.32 -1.32 16.64 -2 18 C-3.32 17.67 -4.64 17.34 -6 17 C-4.33846988 11.14340094 -2.52958084 5.5409866 0 0 Z M2 8 C2 8.66 2 9.32 2 10 C2.66 9.67 3.32 9.34 4 9 C3.34 8.67 2.68 8.34 2 8 Z " fill="#AFAEAD" transform="translate(215,343)"/>
<path d="M0 0 C4.66861981 1.60483806 9.09258167 3.97490194 13 7 C13 7.66 13 8.32 13 9 C13.66 9 14.32 9 15 9 C16.60178593 10.78104718 18.13381926 12.62537278 19.625 14.5 C20.44226563 15.5209375 21.25953125 16.541875 22.1015625 17.59375 C22.72804688 18.3878125 23.35453125 19.181875 24 20 C23.67 20.66 23.34 21.32 23 22 C21.68 21.67 20.36 21.34 19 21 C19.33 20.01 19.66 19.02 20 18 C19.01 17.67 18.02 17.34 17 17 C16.34 16.34 15.68 15.68 15 15 C14.34 14.67 13.68 14.34 13 14 C13 15.98 13 17.96 13 20 C13.99 20 14.98 20 16 20 C16 20.99 16 21.98 16 23 C16.66 23.33 17.32 23.66 18 24 C15 24 15 24 13.3125 22.625 C12 21 12 21 12 19 C11.34 19 10.68 19 10 19 C10 18.34 10 17.68 10 17 C9.34 17 8.68 17 8 17 C8 16.34 8 15.68 8 15 C7.43796875 14.72414062 6.8759375 14.44828125 6.296875 14.1640625 C3.91381206 12.95631972 1.5820992 11.67823191 -0.75 10.375 C-1.54921875 9.92898437 -2.3484375 9.48296875 -3.171875 9.0234375 C-3.77515625 8.68570313 -4.3784375 8.34796875 -5 8 C-4.34 7.67 -3.68 7.34 -3 7 C-2.67 6.01 -2.34 5.02 -2 4 C-0.35 4.33 1.3 4.66 3 5 C3.33 6.98 3.66 8.96 4 11 C5.65 11 7.3 11 9 11 C9 10.01 9 9.02 9 8 C9 7.34 9 6.68 9 6 C8.2575 5.71125 7.515 5.4225 6.75 5.125 C4.43260203 4.17697356 2.22082885 3.15154089 0 2 C0 1.34 0 0.68 0 0 Z " fill="#50851C" transform="translate(275,142)"/>
<path d="M0 0 C0.66 0.99 1.32 1.98 2 3 C1.14115035 6.93639423 -0.02999053 10.48212594 -2 14 C-2.66 14 -3.32 14 -4 14 C-4.66 15.65 -5.32 17.3 -6 19 C-6.99 19 -7.98 19 -9 19 C-9 17.68 -9 16.36 -9 15 C-10.94999129 15.19471111 -10.94999129 15.19471111 -13 16 C-13.69937532 17.31647119 -14.36729133 18.65022151 -15 20 C-15.99 20.33 -16.98 20.66 -18 21 C-18.6496875 22.2065625 -18.6496875 22.2065625 -19.3125 23.4375 C-21.48557259 26.73735097 -23.26531946 26.98852402 -27 28 C-27.99 28.66 -28.98 29.32 -30 30 C-30.66 29.34 -31.32 28.68 -32 28 C-29.68125315 25.27206253 -26.93335608 23.81889452 -23.8359375 22.09375 C-18.52919271 18.93228502 -15.13420301 15.18348959 -12 10 C-16.29 10 -20.58 10 -25 10 C-25 9.67 -25 9.34 -25 9 C-22.37549914 8.77880061 -19.75129514 8.57253331 -17.125 8.375 C-16.37863281 8.31054688 -15.63226563 8.24609375 -14.86328125 8.1796875 C-12.9129953 8.03912635 -10.95530533 8.01240151 -9 8 C-8.34 8.66 -7.68 9.32 -7 10 C-5.35 10 -3.7 10 -2 10 C-1.34 6.7 -0.68 3.4 0 0 Z " fill="#548D1E" transform="translate(301,208)"/>
<path d="M0 0 C0 0.66 0 1.32 0 2 C-2.04174058 1.68798326 -4.08338913 1.37536431 -6.125 1.0625 C-7.26195312 0.88847656 -8.39890625 0.71445313 -9.5703125 0.53515625 C-11.80087579 0.18710708 -14.02594325 -0.19900827 -16.2421875 -0.62890625 C-19.08236017 -1.21694583 -19.08236017 -1.21694583 -22 0 C-22 1.65 -22 3.3 -22 5 C-22.66 5 -23.32 5 -24 5 C-23.67 5.66 -23.34 6.32 -23 7 C-22.34 7 -21.68 7 -21 7 C-21 13.93 -21 20.86 -21 28 C-21.33 28 -21.66 28 -22 28 C-22 21.73 -22 15.46 -22 9 C-24.97 11.475 -24.97 11.475 -28 14 C-28.33 12.02 -28.66 10.04 -29 8 C-28.01 8 -27.02 8 -26 8 C-26 6.35 -26 4.7 -26 3 C-26.99 3 -27.98 3 -29 3 C-29 2.34 -29 1.68 -29 1 C-30.32 0.34 -31.64 -0.32 -33 -1 C-24.11394075 -5.89435318 -8.67057678 -5.1631324 0 0 Z " fill="#52901A" transform="translate(268,139)"/>
<path d="M0 0 C0.66 0.33 1.32 0.66 2 1 C1.67 1.66 1.34 2.32 1 3 C0.34 3 -0.32 3 -1 3 C-2.04214691 7.61507774 -2.04214691 7.61507774 -1 12 C-7.78559177 16.89193825 -7.78559177 16.89193825 -12 17 C-14.8125 15.5625 -14.8125 15.5625 -17 14 C-14.42087719 7.75797404 -8.20503943 4.28293203 -2.5625 1 C-1.716875 0.67 -0.87125 0.34 0 0 Z " fill="#509413" transform="translate(227,140)"/>
<path d="M0 0 C7.92 0 15.84 0 24 0 C21 2 21 2 17 2 C17 2.99 17 3.98 17 5 C15 4 15 4 13 2 C12.67 2.99 12.34 3.98 12 5 C10.68 5 9.36 5 8 5 C8 9.29 8 13.58 8 18 C6.68 17.67 5.36 17.34 4 17 C4 13.04 4 9.08 4 5 C2.68 4.67 1.36 4.34 0 4 C0 2.68 0 1.36 0 0 Z " fill="#8B8889" transform="translate(250,343)"/>
<path d="M0 0 C0.33 0 0.66 0 1 0 C1.33 2.97 1.66 5.94 2 9 C2.33 9 2.66 9 3 9 C3.02578125 9.84304687 3.0515625 10.68609375 3.078125 11.5546875 C3.13484375 12.65039062 3.1915625 13.74609375 3.25 14.875 C3.29640625 15.96554688 3.3428125 17.05609375 3.390625 18.1796875 C3.7002983 21.10270256 3.7002983 21.10270256 5.921875 22.4453125 C8.03943787 23.25642653 8.03943787 23.25642653 10 22 C11.32 24.97 12.64 27.94 14 31 C12.02 31 10.04 31 8 31 C8 32.65 8 34.3 8 36 C5.03 35.01 2.06 34.02 -1 33 C-0.67 32.34 -0.34 31.68 0 31 C3 31 3 31 5 32 C4.72285156 31.43152344 4.44570312 30.86304688 4.16015625 30.27734375 C3.79792969 29.50519531 3.43570313 28.73304688 3.0625 27.9375 C2.70285156 27.18339844 2.34320313 26.42929688 1.97265625 25.65234375 C-0.18335569 19.77309834 -0.13594086 13.73718112 -0.0625 7.5625 C-0.05798828 6.83095703 -0.05347656 6.09941406 -0.04882812 5.34570312 C-0.03718148 3.56376581 -0.01925191 1.78187137 0 0 Z " fill="#427814" transform="translate(226,203)"/>
<path d="M0 0 C0.33 1.32 0.66 2.64 1 4 C5.29 4 9.58 4 14 4 C14 4.33 14 4.66 14 5 C9.38 5 4.76 5 0 5 C-0.33 6.65 -0.66 8.3 -1 10 C-2.25112189 12.65763791 -3.63815555 15.21173964 -5.0390625 17.79296875 C-5.35617187 18.52128906 -5.67328125 19.24960938 -6 20 C-5.67 20.66 -5.34 21.32 -5 22 C-5.66 22.66 -6.32 23.32 -7 24 C-7.66 23.67 -8.32 23.34 -9 23 C-8.835 22.319375 -8.67 21.63875 -8.5 20.9375 C-7.92910941 17.5835178 -7.93340977 14.39610195 -8 11 C-8.66 11 -9.32 11 -10 11 C-10.33 11.99 -10.66 12.98 -11 14 C-12 11 -12 11 -10.5625 7.8125 C-10.046875 6.884375 -9.53125 5.95625 -9 5 C-12.96 5 -16.92 5 -21 5 C-21 4.67 -21 4.34 -21 4 C-16.71 4 -12.42 4 -8 4 C-7.67 4.99 -7.34 5.98 -7 7 C-6.34 7.33 -5.68 7.66 -5 8 C-4.67 6.68 -4.34 5.36 -4 4 C-3.01 4 -2.02 4 -1 4 C-0.67 2.68 -0.34 1.36 0 0 Z " fill="#407512" transform="translate(275,214)"/>
<path d="M0 0 C2 0 2 0 3.625 1.375 C5 3 5 3 5 5 C8.96 5 12.92 5 17 5 C18.24546405 7.49092811 17.7767578 8.41080733 17 11 C17.66 11.33 18.32 11.66 19 12 C14.05 12 9.1 12 4 12 C0 2.25 0 2.25 0 0 Z " fill="#5A9322" transform="translate(228,162)"/>
<path d="M0 0 C4.95 0.33 9.9 0.66 15 1 C15.33 1.99 15.66 2.98 16 4 C15.34 4.66 14.68 5.32 14 6 C14.83333333 8.16666667 14.83333333 8.16666667 17 9 C16.34 9 15.68 9 15 9 C15 12.63 15 16.26 15 20 C16.65 20 18.3 20 20 20 C20 16.37 20 12.74 20 9 C25.61 9 31.22 9 37 9 C36.67 9.99 36.34 10.98 36 12 C36 11.34 36 10.68 36 10 C31.05 10 26.1 10 21 10 C21 13.63 21 17.26 21 21 C19 22 19 22 13 22 C13 18.04 13 14.08 13 10 C8.71 10 4.42 10 0 10 C0 9.67 0 9.34 0 9 C5.94 8.505 5.94 8.505 12 8 C12 6.35 12 4.7 12 3 C8.04 2.67 4.08 2.34 0 2 C0 1.34 0 0.68 0 0 Z " fill="#3D6813" transform="translate(233,165)"/>
<path d="M0 0 C2.475 0.495 2.475 0.495 5 1 C4.98839844 1.62648438 4.97679687 2.25296875 4.96484375 2.8984375 C4.95582031 3.71570313 4.94679687 4.53296875 4.9375 5.375 C4.92589844 6.18710937 4.91429687 6.99921875 4.90234375 7.8359375 C4.85533666 10.04937142 4.85533666 10.04937142 6 12 C8.02463255 12.65213292 8.02463255 12.65213292 10 13 C10 14.65 10 16.3 10 18 C8.52093108 18.02689216 7.04172517 18.04634621 5.5625 18.0625 C4.32693359 18.07990234 4.32693359 18.07990234 3.06640625 18.09765625 C1 18 1 18 0 17 C-0.07325168 14.13732433 -0.09238205 11.299281 -0.0625 8.4375 C-0.05798828 7.63119141 -0.05347656 6.82488281 -0.04882812 5.99414062 C-0.03700518 3.99606244 -0.01906914 1.99802217 0 0 Z " fill="#CDCCCC" transform="translate(162,343)"/>
<path d="M0 0 C1.32 0 2.64 0 4 0 C4.33 4.29 4.66 8.58 5 13 C6.65 13 8.3 13 10 13 C10 14.65 10 16.3 10 18 C7.03 18 4.06 18 1 18 C-1.02789118 13.94421765 -1.24682223 12.26484474 -1.1875 7.875 C-1.18105469 6.82054687 -1.17460937 5.76609375 -1.16796875 4.6796875 C-1 2 -1 2 0 0 Z " fill="#C5C1C0" transform="translate(229,343)"/>
<path d="M0 0 C0.33 0.66 0.66 1.32 1 2 C0.34 2 -0.32 2 -1 2 C-1.33 3.65 -1.66 5.3 -2 7 C-2.66 7 -3.32 7 -4 7 C-4 7.99 -4 8.98 -4 10 C-4.99 10 -5.98 10 -7 10 C-7.33 11.32 -7.66 12.64 -8 14 C-9.98 14 -11.96 14 -14 14 C-14 15.32 -14 16.64 -14 18 C-15.98 18.33 -17.96 18.66 -20 19 C-20 15 -20 15 -18 13 C-17.195625 12.896875 -16.39125 12.79375 -15.5625 12.6875 C-12.74836555 12.24238485 -12.74836555 12.24238485 -11.375 9.4375 C-10.92125 8.633125 -10.4675 7.82875 -10 7 C-9.01 7 -8.02 7 -7 7 C-6.773125 6.21625 -6.54625 5.4325 -6.3125 4.625 C-5 2 -5 2 -2.375 0.6875 C-1.199375 0.3471875 -1.199375 0.3471875 0 0 Z " fill="#4D9B0C" transform="translate(293,221)"/>
<path d="M0 0 C1.9375 1.3125 1.9375 1.3125 3 3 C3 4.32 3 5.64 3 7 C0.69 7 -1.62 7 -4 7 C-4 7.99 -4 8.98 -4 10 C-3.34 10.33 -2.68 10.66 -2 11 C-3.65 11.33 -5.3 11.66 -7 12 C-7.66 9.36 -8.32 6.72 -9 4 C-9.33 4 -9.66 4 -10 4 C-10 6.97 -10 9.94 -10 13 C-10.66 13 -11.32 13 -12 13 C-12.77235138 4.00639725 -12.77235138 4.00639725 -9.9375 0.3125 C-6.11518198 -1.39534422 -4.00116096 -1.1114336 0 0 Z M-6 4 C-6.33 5.98 -6.66 7.96 -7 10 C-6.01 10.495 -6.01 10.495 -5 11 C-5 9.35 -5 7.7 -5 6 C-4.01 5.67 -3.02 5.34 -2 5 C-3.32 4.67 -4.64 4.34 -6 4 Z " fill="#8A8887" transform="translate(155,344)"/>
<path d="M0 0 C0.33 0.66 0.66 1.32 1 2 C3.52733235 2.65555119 3.52733235 2.65555119 6 3 C6.33 4.32 6.66 5.64 7 7 C7.66 7 8.32 7 9 7 C9.66 9.31 10.32 11.62 11 14 C9.02 14.66 7.04 15.32 5 16 C2 11.25 2 11.25 2 9 C1.34 9 0.68 9 0 9 C-1.0625 7.1875 -1.0625 7.1875 -2 5 C-1 2 -1 2 0 0 Z " fill="#4E9213" transform="translate(204,213)"/>
<path d="M0 0 C5.28 0 10.56 0 16 0 C16 0.66 16 1.32 16 2 C17.32 1.67 18.64 1.34 20 1 C20.33 1.99 20.66 2.98 21 4 C20.01 5.485 20.01 5.485 19 7 C17.68 6.67 16.36 6.34 15 6 C15 5.34 15 4.68 15 4 C14.21625 4.165 13.4325 4.33 12.625 4.5 C8.06033858 5.12960847 3.59927399 5.08180527 -1 5 C-0.67 3.35 -0.34 1.7 0 0 Z " fill="#4C9A0E" transform="translate(277,212)"/>
<path d="M0 0 C0.66 0.66 1.32 1.32 2 2 C-6.415 2.495 -6.415 2.495 -15 3 C-15 3.66 -15 4.32 -15 5 C-9.39 5.33 -3.78 5.66 2 6 C2 6.66 2 7.32 2 8 C-0.39541268 8.19585135 -2.79092774 8.38192107 -5.1875 8.5625 C-6.19780273 8.64661133 -6.19780273 8.64661133 -7.22851562 8.73242188 C-11.017131 9.00963763 -14.31827794 8.96511161 -18 8 C-18 5.69 -18 3.38 -18 1 C-12.07069473 -0.05409871 -6.01157788 -0.5881975 0 0 Z " fill="#619825" transform="translate(296,188)"/>
<path d="M0 0 C2.76771273 0.04472067 4.14021868 0.22754137 6.6875 1.4375 C8.1875 3.25 8.1875 3.25 8.4375 5.9375 C8.355 6.700625 8.2725 7.46375 8.1875 8.25 C7.1975 7.59 6.2075 6.93 5.1875 6.25 C4.8575 6.58 4.5275 6.91 4.1875 7.25 C2.52132885 7.29063832 0.85361905 7.292721 -0.8125 7.25 C-1.1425 6.26 -1.4725 5.27 -1.8125 4.25 C-2.1425 8.54 -2.4725 12.83 -2.8125 17.25 C-0.5025 17.25 1.8075 17.25 4.1875 17.25 C4.1875 17.58 4.1875 17.91 4.1875 18.25 C-1.96484375 18.34765625 -1.96484375 18.34765625 -3.8125 18.25 C-5.63366003 16.42883997 -4.9448508 13.94328236 -4.94921875 11.5234375 C-4.94535156 10.77320313 -4.94148437 10.02296875 -4.9375 9.25 C-4.94136719 8.49976563 -4.94523438 7.74953125 -4.94921875 6.9765625 C-4.93721007 0.32375148 -4.93721007 0.32375148 0 0 Z " fill="#A4A1A1" transform="translate(198.8125,342.75)"/>
<path d="M0 0 C0.99 0.33 1.98 0.66 3 1 C2.67 1.66 2.34 2.32 2 3 C1.34 3 0.68 3 0 3 C-0.23460937 3.5878125 -0.46921875 4.175625 -0.7109375 4.78125 C-4.39872144 11.12870842 -13.42940366 15.18403014 -20 18 C-22 17 -22 17 -22.6875 15.125 C-23 13 -23 13 -22 10 C-21.195625 10.495 -21.195625 10.495 -20.375 11 C-17.4608939 12.22699204 -15.13132292 12.14233286 -12 12 C-12 10.68 -12 9.36 -12 8 C-10.02 8 -8.04 8 -6 8 C-5.67 6.68 -5.34 5.36 -5 4 C-4.01 4 -3.02 4 -2 4 C-2 3.01 -2 2.02 -2 1 C-1.34 0.67 -0.68 0.34 0 0 Z " fill="#52861D" transform="translate(291,227)"/>
<path d="M0 0 C0.66 0 1.32 0 2 0 C2.25028811 1.58013217 2.47440946 3.16442306 2.6875 4.75 C2.81511719 5.63171875 2.94273437 6.5134375 3.07421875 7.421875 C2.98289929 10.59402452 2.1547821 11.72749821 0 14 C-0.99 14.495 -0.99 14.495 -2 15 C-2 14.01 -2 13.02 -2 12 C-2.97582031 12.01160156 -3.95164062 12.02320313 -4.95703125 12.03515625 C-6.22933594 12.04417969 -7.50164062 12.05320313 -8.8125 12.0625 C-10.70935547 12.07990234 -10.70935547 12.07990234 -12.64453125 12.09765625 C-16 12 -16 12 -19 11 C-19 10.34 -19 9.68 -19 9 C-12.565 8.505 -12.565 8.505 -6 8 C-6 8.66 -6 9.32 -6 10 C-4.68 9.67 -3.36 9.34 -2 9 C-1.34 6.03 -0.68 3.06 0 0 Z " fill="#4C9C0D" transform="translate(300,182)"/>
<path d="M0 0 C1.65 0 3.3 0 5 0 C5 5.61 5 11.22 5 17 C3.68 17.33 2.36 17.66 1 18 C0 17 0 17 -0.09765625 13.18359375 C-0.09098089 11.60153318 -0.07901875 10.01948841 -0.0625 8.4375 C-0.05798828 7.63119141 -0.05347656 6.82488281 -0.04882812 5.99414062 C-0.03700518 3.99606244 -0.01906914 1.99802217 0 0 Z " fill="#F2EFEF" transform="translate(318,343)"/>
<path d="M0 0 C1.65 0.33 3.3 0.66 5 1 C4.67 1.99 4.34 2.98 4 4 C4.763125 3.79375 5.52625 3.5875 6.3125 3.375 C9 3 9 3 12 5 C12 6.32 12 7.64 12 9 C11.01 9.33 10.02 9.66 9 10 C8.67 9.34 8.34 8.68 8 8 C5.47266765 7.34444881 5.47266765 7.34444881 3 7 C2.34 8.32 1.68 9.64 1 11 C-0.32 10.67 -1.64 10.34 -3 10 C-2.21302675 6.58978257 -1.12880057 3.31114834 0 0 Z " fill="#DEDCDB" transform="translate(284,350)"/>
<path d="M0 0 C1.65 0 3.3 0 5 0 C7.83022097 3.99560608 6.76210446 7.42737323 6 12 C5.67 10.68 5.34 9.36 5 8 C3.68 8 2.36 8 1 8 C1 8.99 1 9.98 1 11 C1.66 11 2.32 11 3 11 C3 11.66 3 12.32 3 13 C1.68 13 0.36 13 -1 13 C-3.28964059 8.05919662 -3.28964059 8.05919662 -2.46484375 5.04296875 C-1.71434788 3.32904563 -0.86320768 1.66001476 0 0 Z " fill="#C8C5C5" transform="translate(215,343)"/>
<path d="M0 0 C0.99 1.32 1.98 2.64 3 4 C3.33 3.67 3.66 3.34 4 3 C6.33297433 2.95907063 8.66705225 2.95758277 11 3 C11.66 5.31 12.32 7.62 13 10 C11.68 10.33 10.36 10.66 9 11 C8.01 9.68 7.02 8.36 6 7 C5.34 8.32 4.68 9.64 4 11 C2.68 11 1.36 11 0 11 C0 7.37 0 3.74 0 0 Z " fill="#A9A7A6" transform="translate(266,350)"/>
<path d="M0 0 C0.33 0.66 0.66 1.32 1 2 C1.66 2 2.32 2 3 2 C3 1.34 3 0.68 3 0 C3.66 0 4.32 0 5 0 C5.6875 2.75 5.6875 2.75 6 6 C4.625 8.1875 4.625 8.1875 3 10 C2.67 10.99 2.34 11.98 2 13 C1.34 13 0.68 13 0 13 C-0.33 11.68 -0.66 10.36 -1 9 C-1.99 9 -2.98 9 -4 9 C-4 8.34 -4 7.68 -4 7 C-9.28 7 -14.56 7 -20 7 C-20 6.67 -20 6.34 -20 6 C-18.80761719 5.93941406 -17.61523438 5.87882813 -16.38671875 5.81640625 C-14.82030075 5.73198851 -13.25389512 5.64734113 -11.6875 5.5625 C-10.90181641 5.52318359 -10.11613281 5.48386719 -9.30664062 5.44335938 C-8.1706543 5.38051758 -8.1706543 5.38051758 -7.01171875 5.31640625 C-6.31522217 5.27974854 -5.61872559 5.24309082 -4.90112305 5.20532227 C-2.7783428 5.04418847 -2.7783428 5.04418847 0 4 C0 2.68 0 1.36 0 0 Z " fill="#59A019" transform="translate(297,205)"/>
<path d="M0 0 C12.87 0 25.74 0 39 0 C39 0.33 39 0.66 39 1 C33.72 1 28.44 1 23 1 C23.33 1.66 23.66 2.32 24 3 C24.06950541 4.54023996 24.08452357 6.08334988 24.0625 7.625 C24.05347656 8.44226563 24.04445313 9.25953125 24.03515625 10.1015625 C24.02355469 10.72804687 24.01195312 11.35453125 24 12 C23.67 12 23.34 12 23 12 C22.67 9.36 22.34 6.72 22 4 C20.68 3.67 19.36 3.34 18 3 C18 6.96 18 10.92 18 15 C17.67 15 17.34 15 17 15 C16.67 10.38 16.34 5.76 16 1 C10.72 1 5.44 1 0 1 C0 0.67 0 0.34 0 0 Z " fill="#69A52F" transform="translate(254,173)"/>
<path d="M0 0 C0.33 1.65 0.66 3.3 1 5 C-0.49739583 6.20442708 -1.99479167 7.40885417 -3.4921875 8.61328125 C-5.25292107 10.12270545 -5.25292107 10.12270545 -7 13 C-7.66 13 -8.32 13 -9 13 C-9.66 11.35 -10.32 9.7 -11 8 C-8.21659292 4.18570141 -5.12174212 0 0 0 Z " fill="#4C9A0C" transform="translate(247,195)"/>
<path d="M0 0 C0.33 3.3 0.66 6.6 1 10 C2.32 10.33 3.64 10.66 5 11 C4.67 11.66 4.34 12.32 4 13 C0.625 12.6875 0.625 12.6875 -3 12 C-5.67927341 7.98108988 -5.15601248 5.75838077 -5 1 C-3 0 -3 0 0 0 Z " fill="#C9C7C8" transform="translate(180,347)"/>
<path d="M0 0 C2.375 0.1875 2.375 0.1875 5 1 C7.16789459 4.61315766 7.19258541 7.85941364 7 12 C6.34 12 5.68 12 5 12 C4.67 12.99 4.34 13.98 4 15 C-0.03854121 9.9079263 -0.10306393 6.28689984 0 0 Z " fill="#4D8919" transform="translate(196,202)"/>
<path d="M0 0 C0.99 0 1.98 0 3 0 C3 0.66 3 1.32 3 2 C3.66 2 4.32 2 5 2 C4.67 6.95 4.34 11.9 4 17 C2.68 16.67 1.36 16.34 0 16 C0 10.72 0 5.44 0 0 Z " fill="#F5F4F1" transform="translate(326,344)"/>
<path d="M0 0 C3.96 0 7.92 0 12 0 C12 0.33 12 0.66 12 1 C10.35 1 8.7 1 7 1 C7 5.95 7 10.9 7 16 C6.01 16 5.02 16 4 16 C4 12.04 4 8.08 4 4 C2.68 3.67 1.36 3.34 0 3 C0 2.01 0 1.02 0 0 Z " fill="#DAD9D8" transform="translate(250,344)"/>
<path d="M0 0 C5.53861336 6.65564463 6.69546516 15.57538799 6 24 C5.73873149 26.3557711 5.3980139 28.66166833 5 31 C4.34 31 3.68 31 3 31 C3.02320313 29.96359375 3.04640625 28.9271875 3.0703125 27.859375 C3.08907667 26.48959056 3.10727618 25.1197983 3.125 23.75 C3.14175781 23.06808594 3.15851563 22.38617188 3.17578125 21.68359375 C3.2133811 17.81080893 2.82132243 15.36668691 1 12 C0.71519194 9.9257375 0.51125776 7.83928561 0.375 5.75 C0.30023438 4.67234375 0.22546875 3.5946875 0.1484375 2.484375 C0.09945312 1.66453125 0.05046875 0.8446875 0 0 Z " fill="#476E1F" transform="translate(228,171)"/>
<path d="M0 0 C1.20849609 0.00322266 2.41699219 0.00644531 3.66210938 0.00976562 C5.55606445 0.02233398 5.55606445 0.02233398 7.48828125 0.03515625 C9.39963867 0.04192383 9.39963867 0.04192383 11.34960938 0.04882812 C14.50004689 0.06062752 17.65039074 0.07709028 20.80078125 0.09765625 C20.80078125 0.75765625 20.80078125 1.41765625 20.80078125 2.09765625 C15.57387201 3.26533904 10.57257267 3.28150513 5.23828125 3.28515625 C4.29275391 3.29740234 3.34722656 3.30964844 2.37304688 3.32226562 C1.46103516 3.32419922 0.54902344 3.32613281 -0.390625 3.328125 C-1.21763916 3.33223389 -2.04465332 3.33634277 -2.89672852 3.34057617 C-5.40395056 3.0760564 -7.03245259 2.35426234 -9.19921875 1.09765625 C-5.90187229 -0.00145924 -3.4696313 -0.01628935 0 0 Z " fill="#406F13" transform="translate(244.19921875,244.90234375)"/>
<path d="M0 0 C0.33 0.99 0.66 1.98 1 3 C-1.31 3.66 -3.62 4.32 -6 5 C-6 7.31 -6 9.62 -6 12 C-7.32 12 -8.64 12 -10 12 C-10.36567164 5.66169154 -10.36567164 5.66169154 -8.6875 2.625 C-5.89058937 -0.06832135 -3.85145387 0 0 0 Z " fill="#DCDBD9" transform="translate(354,343)"/>
<path d="M0 0 C1.32 0 2.64 0 4 0 C4.33 3.3 4.66 6.6 5 10 C4.01 9.67 3.02 9.34 2 9 C2 9.99 2 10.98 2 12 C0.0625 11.625 0.0625 11.625 -2 11 C-3 9 -3 9 -2.44140625 6.8359375 C-2.15136719 6.02382812 -1.86132812 5.21171875 -1.5625 4.375 C-1.27503906 3.55773437 -0.98757812 2.74046875 -0.69140625 1.8984375 C-0.46324219 1.27195313 -0.23507813 0.64546875 0 0 Z " fill="#4D9B0C" transform="translate(250,198)"/>
<path d="M0 0 C8.43459786 0.31239251 15.13804385 3.93892449 21.125 9.875 C21.74375 10.57625 22.3625 11.2775 23 12 C22.67 12.66 22.34 13.32 22 14 C19.525 13.505 19.525 13.505 17 13 C17 11.35 17 9.7 17 8 C16.43410156 7.89042969 15.86820313 7.78085938 15.28515625 7.66796875 C14.55167969 7.50941406 13.81820312 7.35085937 13.0625 7.1875 C12.33160156 7.03667969 11.60070312 6.88585937 10.84765625 6.73046875 C10.23792969 6.48941406 9.62820312 6.24835938 9 6 C8.67 5.01 8.34 4.02 8 3 C7.236875 2.87625 6.47375 2.7525 5.6875 2.625 C3 2 3 2 0 0 Z " fill="#4D7C1B" transform="translate(205,157)"/>
<path d="M0 0 C1.32 0.33 2.64 0.66 4 1 C4 4.96 4 8.92 4 13 C-1 11 -1 11 -1.9375 9.3125 C-2.02770497 5.97491616 -1.02993993 3.15040449 0 0 Z " fill="#549C18" transform="translate(231,214)"/>
<path d="M0 0 C2.31 0 4.62 0 7 0 C7 0.33 7 0.66 7 1 C5.35 1 3.7 1 2 1 C2 2.65 2 4.3 2 6 C3.98 6 5.96 6 8 6 C8.33 8.64 8.66 11.28 9 14 C9.99 14 10.98 14 12 14 C12.66 13.34 13.32 12.68 14 12 C13.67 14.97 13.34 17.94 13 21 C12.67 19.68 12.34 18.36 12 17 C11.360625 17.185625 10.72125 17.37125 10.0625 17.5625 C9.381875 17.706875 8.70125 17.85125 8 18 C7 17 7 17 6.90234375 14.71484375 C6.91394531 13.79832031 6.92554688 12.88179687 6.9375 11.9375 C6.94652344 11.01839844 6.95554687 10.09929687 6.96484375 9.15234375 C6.97644531 8.44207031 6.98804688 7.73179687 7 7 C4.69 7 2.38 7 0 7 C-0.93423645 3.98968256 -1.04449911 3.13349732 0 0 Z " fill="#5F9F25" transform="translate(264,189)"/>
<path d="M0 0 C0.99 0.66 1.98 1.32 3 2 C3 2.66 3 3.32 3 4 C2.34 4 1.68 4 1 4 C1.33 4.66 1.66 5.32 2 6 C2.66 6 3.32 6 4 6 C4 12.93 4 19.86 4 27 C3.67 27 3.34 27 3 27 C3 20.73 3 14.46 3 8 C0.03 10.475 0.03 10.475 -3 13 C-3.33 11.02 -3.66 9.04 -4 7 C-3.01 7 -2.02 7 -1 7 C-0.67 4.69 -0.34 2.38 0 0 Z " fill="#4C8219" transform="translate(243,140)"/>
<path d="M0 0 C0.99 0.33 1.98 0.66 3 1 C3.70151152 2.3153341 4.36525925 3.65117592 5 5 C6.5412312 6.70921589 6.5412312 6.70921589 8 8 C7.01 8.495 7.01 8.495 6 9 C3.56340474 7.80385323 1.26997589 6.56187014 -1.0625 5.1875 C-1.71283203 4.81818359 -2.36316406 4.44886719 -3.03320312 4.06835938 C-7.8665293 1.26694139 -7.8665293 1.26694139 -9 -1 C-5.1607373 -2.06646186 -3.41207103 -2.04724262 0 0 Z " fill="#4A8018" transform="translate(223,236)"/>
<path d="M0 0 C0.66 0.33 1.32 0.66 2 1 C1.34 2.32 0.68 3.64 0 5 C-3.96 5 -7.92 5 -12 5 C-12.73741485 8.68707426 -13.24861109 12.09067437 -13.5625 15.8125 C-13.64628906 16.78832031 -13.73007813 17.76414063 -13.81640625 18.76953125 C-13.87699219 19.50558594 -13.93757812 20.24164063 -14 21 C-14.33 21 -14.66 21 -15 21 C-15.33 15.39 -15.66 9.78 -16 4 C-12.99686252 2.49843126 -10.20932478 2.90718796 -6.875 2.9375 C-5.59367187 2.94652344 -4.31234375 2.95554688 -2.9921875 2.96484375 C-2.00476563 2.97644531 -1.01734375 2.98804688 0 3 C0 2.01 0 1.02 0 0 Z " fill="#56981C" transform="translate(267,164)"/>
<path d="M0 0 C2 2 2 2 2.1953125 5.4765625 C2.18201493 6.85950968 2.15816232 8.24238654 2.125 9.625 C2.11597656 10.33140625 2.10695312 11.0378125 2.09765625 11.765625 C2.07407603 13.51056098 2.03820461 15.25532295 2 17 C2.928125 15.7625 2.928125 15.7625 3.875 14.5 C4.57625 13.675 5.2775 12.85 6 12 C6.66 12 7.32 12 8 12 C8.66 10.68 9.32 9.36 10 8 C10 9.98 10 11.96 10 14 C9.34 14 8.68 14 8 14 C7.566875 15.2065625 7.566875 15.2065625 7.125 16.4375 C6 19 6 19 4 20 C2.68 19.67 1.36 19.34 0 19 C0 12.73 0 6.46 0 0 Z " fill="#497916" transform="translate(253,219)"/>
<path d="M0 0 C0.33 0.66 0.66 1.32 1 2 C2.32 2 3.64 2 5 2 C5 2.66 5 3.32 5 4 C6.65 3.67 8.3 3.34 10 3 C8.68 4.65 7.36 6.3 6 8 C2.26512223 7.5020163 0.18762365 7.12508244 -3 5 C-1.125 1.125 -1.125 1.125 0 0 Z " fill="#457618" transform="translate(213,149)"/>
<path d="M0 0 C1.65 0 3.3 0 5 0 C6.17673198 2.35346396 6.16623866 3.8806033 6.1875 6.5 C6.20167969 7.2940625 6.21585937 8.088125 6.23046875 8.90625 C6 11 6 11 4 13 C3.34 9.7 2.68 6.4 2 3 C-6.415 3.495 -6.415 3.495 -15 4 C-15 3.34 -15 2.68 -15 2 C-10.05 1.67 -5.1 1.34 0 1 C0 0.67 0 0.34 0 0 Z " fill="#3E6A15" transform="translate(292,172)"/>
<path d="M0 0 C9 0 9 0 13 2 C12.67 2.66 12.34 3.32 12 4 C8.7 3.34 5.4 2.68 2 2 C2 6.62 2 11.24 2 16 C1.34 16 0.68 16 0 16 C0 10.72 0 5.44 0 0 Z " fill="#4D7B20" transform="translate(187,153)"/>
<path d="M0 0 C0.5534764 2.07553648 1 3.84365964 1 6 C3.97 6.495 3.97 6.495 7 7 C5.36587557 8.70840281 4.13093906 9.93453047 2 11 C0.00039988 11.039992 -2.00047242 11.04346799 -4 11 C-2.25 3.375 -2.25 3.375 0 0 Z " fill="#3F691A" transform="translate(243,208)"/>
<path d="M0 0 C-1.32 1.65 -2.64 3.3 -4 5 C-2.02 5.66 -0.04 6.32 2 7 C2 7.33 2 7.66 2 8 C-0.64 8.66 -3.28 9.32 -6 10 C-8.125 3.375 -8.125 3.375 -7 0 C-4.05610218 -1.17755913 -3.10046087 -1.03348696 0 0 Z " fill="#F1EAE8" transform="translate(274,345)"/>
<path d="M0 0 C1 3 1 3 0 6 C8.415 5.505 8.415 5.505 17 5 C16.67 5.99 16.34 6.98 16 8 C10.39 8 4.78 8 -1 8 C-2.2077558 4.37673261 -1.54311128 3.35853631 0 0 Z " fill="#7A6C68" transform="translate(289,321)"/>
<path d="M0 0 C3.96 0 7.92 0 12 0 C11.67 1.32 11.34 2.64 11 4 C7.37 4 3.74 4 0 4 C0 2.68 0 1.36 0 0 Z " fill="#4A980D" transform="translate(234,168)"/>
<path d="M0 0 C1.65 0 3.3 0 5 0 C5 5.61 5 11.22 5 17 C3.68 17.33 2.36 17.66 1 18 C0 17 0 17 -0.0625 13.4375 C-0.041875 12.303125 -0.02125 11.16875 0 10 C0.33 10 0.66 10 1 10 C1 11.98 1 13.96 1 16 C1.66 16 2.32 16 3 16 C3.33 11.05 3.66 6.1 4 1 C3.01 1 2.02 1 1 1 C1 2.98 1 4.96 1 7 C0.67 7 0.34 7 0 7 C0 4.69 0 2.38 0 0 Z " fill="#646262" transform="translate(318,343)"/>
<path d="M0 0 C0.99 0 1.98 0 3 0 C3 4.95 3 9.9 3 15 C2.01 15.33 1.02 15.66 0 16 C-0.33 14.68 -0.66 13.36 -1 12 C-0.34 12 0.32 12 1 12 C0.835 11.505 0.67 11.01 0.5 10.5 C-0.20688818 6.96555911 -0.06005155 3.60309299 0 0 Z " fill="#F6F3F2" transform="translate(337,344)"/>
<path d="M0 0 C2.41802195 0.28270406 4.8340122 0.57579264 7.25 0.875 C7.93191406 0.95363281 8.61382812 1.03226563 9.31640625 1.11328125 C12.90696311 1.56645833 15.892507 2.09385738 19 4 C19 4.66 19 5.32 19 6 C5.3667426 4.07289294 5.3667426 4.07289294 -1 2 C-0.67 1.34 -0.34 0.68 0 0 Z " fill="#5C8E24" transform="translate(249,135)"/>
<path d="M0 0 C0.33 0.66 0.66 1.32 1 2 C4.3 2 7.6 2 11 2 C11 2.33 11 2.66 11 3 C4.565 3.495 4.565 3.495 -2 4 C-2.33 9.94 -2.66 15.88 -3 22 C-3.33 22 -3.66 22 -4 22 C-4.33 15.73 -4.66 9.46 -5 3 C-3.35 2.01 -1.7 1.02 0 0 Z " fill="#5A921F" transform="translate(256,215)"/>
<path d="M0 0 C0.33 0.66 0.66 1.32 1 2 C-3.455 2.495 -3.455 2.495 -8 3 C-7.67 4.32 -7.34 5.64 -7 7 C-9.31 7.33 -11.62 7.66 -14 8 C-13.34 5.69 -12.68 3.38 -12 1 C-6.06 0.505 -6.06 0.505 0 0 Z " fill="#549618" transform="translate(288,166)"/>
<path d="M0 0 C2.62386487 3.06117568 3 3.73173127 3 8 C7.29 8 11.58 8 16 8 C16 8.33 16 8.66 16 9 C13.73122896 9.24875561 11.45980265 9.47339246 9.1875 9.6875 C7.92292969 9.81511719 6.65835937 9.94273437 5.35546875 10.07421875 C2 10 2 10 0.03125 8.75 C-1.68647573 5.83507149 -0.65942695 3.17723896 0 0 Z " fill="#3A680F" transform="translate(272,158)"/>
<path d="M0 0 C1.32527172 3.6297251 0.66675274 5.62288221 -0.8125 9.125 C-1.16957031 9.99382812 -1.52664063 10.86265625 -1.89453125 11.7578125 C-3 14 -3 14 -5 16 C-5 13.03 -5 10.06 -5 7 C-4.34 7 -3.68 7 -3 7 C-2.67 5.68 -2.34 4.36 -2 3 C-1.34 3 -0.68 3 0 3 C0 2.01 0 1.02 0 0 Z " fill="#4E8519" transform="translate(260,196)"/>
<path d="M0 0 C0.99 0.33 1.98 0.66 3 1 C3.144375 1.763125 3.28875 2.52625 3.4375 3.3125 C3.9632594 6.08172908 3.9632594 6.08172908 5 9 C5.06802967 10.72795352 5.08495645 12.45835365 5.0625 14.1875 C5.05347656 15.08855469 5.04445312 15.98960937 5.03515625 16.91796875 C5.02355469 17.60503906 5.01195312 18.29210937 5 19 C4.67 19 4.34 19 4 19 C3.89042969 18.41992188 3.78085938 17.83984375 3.66796875 17.2421875 C2.88570132 13.38808944 2.11181815 10.21949489 0.3125 6.6875 C-1 4 -1 4 -0.6875 1.625 C-0.460625 1.08875 -0.23375 0.5525 0 0 Z " fill="#45721B" transform="translate(221,184)"/>
<path d="M0 0 C1.98 0 3.96 0 6 0 C5.67 0.66 5.34 1.32 5 2 C3.68 2 2.36 2 1 2 C0.67 3.98 0.34 5.96 0 8 C-0.99 8.33 -1.98 8.66 -3 9 C-3 9.66 -3 10.32 -3 11 C-3.66 10.67 -4.32 10.34 -5 10 C-5 8.68 -5 7.36 -5 6 C-4.34 6 -3.68 6 -3 6 C-3 5.01 -3 4.02 -3 3 C-2.34 3 -1.68 3 -1 3 C-0.67 2.01 -0.34 1.02 0 0 Z " fill="#559B18" transform="translate(229,140)"/>
<path d="M0 0 C2 1 2 1 2.6875 2.875 C3 5 3 5 2 8 C0.0625 8.75 0.0625 8.75 -2 9 C-2.66 8.67 -3.32 8.34 -4 8 C-4 7.34 -4 6.68 -4 6 C-4.99 6 -5.98 6 -7 6 C-7 4.68 -7 3.36 -7 2 C-5.35 2 -3.7 2 -2 2 C-2 3.32 -2 4.64 -2 6 C-1.01 6.33 -0.02 6.66 1 7 C0.67 4.69 0.34 2.38 0 0 Z " fill="#A49D9D" transform="translate(205,351)"/>
<path d="M0 0 C0.33 0 0.66 0 1 0 C1.33 4.29 1.66 8.58 2 13 C1.67 13 1.34 13 1 13 C0.67 14.98 0.34 16.96 0 19 C-2.69926097 14.78240474 -2.52437021 10.58116717 -1.546875 5.76953125 C-1.06798763 3.83687864 -0.5381075 1.91700797 0 0 Z " fill="#4D8317" transform="translate(304,177)"/>
<path d="M0 0 C7.23809524 -0.36190476 7.23809524 -0.36190476 10.5 1.1875 C12 3 12 3 12.25 5.6875 C12.1675 6.450625 12.085 7.21375 12 8 C11.01 7.34 10.02 6.68 9 6 C8.67 6.33 8.34 6.66 8 7 C6.33382885 7.04063832 4.66611905 7.042721 3 7 C3 6.01 3 5.02 3 4 C4.65 3.67 6.3 3.34 8 3 C6.03177114 1.03177114 2.65191291 1.33751619 0 1 C0 0.67 0 0.34 0 0 Z " fill="#898786" transform="translate(195,343)"/>
<path d="M0 0 C2.66666667 1.33333333 5.33333333 2.66666667 8 4 C7.67 4.66 7.34 5.32 7 6 C4.6859378 6.73075648 2.35171131 7.40138258 0 8 C-0.79953138 4.71303767 -1.09658936 3.28976808 0 0 Z " fill="#488513" transform="translate(269,237)"/>
<path d="M0 0 C4.29 0 8.58 0 13 0 C13.33 0.99 13.66 1.98 14 3 C14.66 3.33 15.32 3.66 16 4 C16 4.66 16 5.32 16 6 C14.35 6.33 12.7 6.66 11 7 C10.67 7.99 10.34 8.98 10 10 C9 7 9 7 10.4375 3.8125 C10.953125 2.884375 11.46875 1.95625 12 1 C8.04 1 4.08 1 0 1 C0 0.67 0 0.34 0 0 Z " fill="#325E0E" transform="translate(254,218)"/>
<path d="M0 0 C7.75 -0.125 7.75 -0.125 10 1 C10 1.66 10 2.32 10 3 C10.66 3.33 11.32 3.66 12 4 C8.37 4 4.74 4 1 4 C0.67 2.68 0.34 1.36 0 0 Z " fill="#4C9B08" transform="translate(280,169)"/>
<path d="M0 0 C0.77842938 3.40562852 1.09978121 6.50765756 1 10 C-0.32 9.67 -1.64 9.34 -3 9 C-2.979375 8.05125 -2.95875 7.1025 -2.9375 6.125 C-2.77448174 3.09333717 -2.77448174 3.09333717 -4 1 C-2 0 -2 0 0 0 Z " fill="#478F10" transform="translate(251,218)"/>
<path d="M0 0 C1.32 0.33 2.64 0.66 4 1 C4 1.66 4 2.32 4 3 C2.576875 3.8971875 2.576875 3.8971875 1.125 4.8125 C-2.24310923 7.17017646 -2.69219977 8.27779934 -4 12 C-4.99 12.33 -5.98 12.66 -7 13 C-5.78065514 8.96678237 -4.44045073 5.45730521 -2 2 C-1.34 2 -0.68 2 0 2 C0 1.34 0 0.68 0 0 Z " fill="#4B771E" transform="translate(240,194)"/>
<path d="M0 0 C2.27967298 2.27967298 2.79086105 3.825662 3.75 6.875 C4.03359375 7.73867187 4.3171875 8.60234375 4.609375 9.4921875 C5.06462081 12.41486558 4.57145895 13.55171251 3 16 C2.34 15.67 1.68 15.34 1 15 C1.04125 13.88625 1.0825 12.7725 1.125 11.625 C1.41121859 7.95633975 1.41121859 7.95633975 -1 6 C-0.67 5.67 -0.34 5.34 0 5 C0.04063832 3.33382885 0.042721 1.66611905 0 0 Z " fill="#4A7B19" transform="translate(299,164)"/>
<path d="M0 0 C0.33 0 0.66 0 1 0 C1.33 5.28 1.66 10.56 2 16 C-2.29 15.67 -6.58 15.34 -11 15 C-11 14.67 -11 14.34 -11 14 C-7.7 14 -4.4 14 -1 14 C-0.67 9.38 -0.34 4.76 0 0 Z " fill="#2A540C" transform="translate(270,196)"/>
<path d="M0 0 C2.64 0 5.28 0 8 0 C7.67 1.98 7.34 3.96 7 6 C5.68 5.67 4.36 5.34 3 5 C3 4.34 3 3.68 3 3 C2.01 3 1.02 3 0 3 C0 2.01 0 1.02 0 0 Z " fill="#DAD6D3" transform="translate(151,351)"/>
<path d="M0 0 C0.99 0.66 1.98 1.32 3 2 C2.34 4.31 1.68 6.62 1 9 C-0.32 8.67 -1.64 8.34 -3 8 C-1.125 1.125 -1.125 1.125 0 0 Z " fill="#BEBDBC" transform="translate(212,352)"/>
<path d="M0 0 C3.36338044 3.36338044 4 6.28835716 4 11 C2.02 11.99 2.02 11.99 0 13 C0.03255208 10.98177083 0.06510417 8.96354167 0.09765625 6.9453125 C0.12649242 4.91814596 0.12649242 4.91814596 -1 3 C-0.67 2.01 -0.34 1.02 0 0 Z " fill="#BBBAB7" transform="translate(338,271)"/>
<path d="M0 0 C5.75 0.75 5.75 0.75 8 3 C7.625 5.125 7.625 5.125 7 7 C6.34 6.67 5.68 6.34 5 6 C5.33 5.34 5.66 4.68 6 4 C4.68 4 3.36 4 2 4 C1.34 5.32 0.68 6.64 0 8 C0 5.36 0 2.72 0 0 Z " fill="#457218" transform="translate(195,199)"/>
<path d="M0 0 C0.99 1.32 1.98 2.64 3 4 C3.33 4 3.66 4 4 4 C4 6.31 4 8.62 4 11 C2.68 11 1.36 11 0 11 C0 7.37 0 3.74 0 0 Z " fill="#B9B7B5" transform="translate(266,350)"/>
<path d="M0 0 C0.99 0 1.98 0 3 0 C3 0.66 3 1.32 3 2 C3.66 2 4.32 2 5 2 C5 2.99 5 3.98 5 5 C4.37351562 4.97679687 3.74703125 4.95359375 3.1015625 4.9296875 C2.28429687 4.91164063 1.46703125 4.89359375 0.625 4.875 C-0.59316406 4.84019531 -0.59316406 4.84019531 -1.8359375 4.8046875 C-4.21342243 4.78629949 -4.21342243 4.78629949 -6 7 C-6.33 5.68 -6.66 4.36 -7 3 C-3.535 2.505 -3.535 2.505 0 2 C0 1.34 0 0.68 0 0 Z " fill="#B1AEAD" transform="translate(354,344)"/>
<path d="M0 0 C2.31 0.33 4.62 0.66 7 1 C7.33 2.32 7.66 3.64 8 5 C3 4 3 4 -2 3 C-1.34 2.01 -0.68 1.02 0 0 Z " fill="#E1DCDB" transform="translate(150,344)"/>
<path d="M0 0 C2.475 0.495 2.475 0.495 5 1 C5 2.32 5 3.64 5 5 C4.34 5 3.68 5 3 5 C2.67 4.34 2.34 3.68 2 3 C1.67 7.62 1.34 12.24 1 17 C0.67 17 0.34 17 0 17 C0 11.39 0 5.78 0 0 Z " fill="#7E7C7D" transform="translate(162,343)"/>
<path d="M0 0 C0.33 0.66 0.66 1.32 1 2 C3.02463255 2.65213292 3.02463255 2.65213292 5 3 C5 4.65 5 6.3 5 8 C0.25 6.125 0.25 6.125 -2 5 C-1 2 -1 2 0 0 Z " fill="#519A10" transform="translate(204,213)"/>
<path d="M0 0 C1.65 0 3.3 0 5 0 C5 2.31 5 4.62 5 7 C4.34 7 3.68 7 3 7 C3 6.01 3 5.02 3 4 C1.68 4.33 0.36 4.66 -1 5 C-0.67 3.35 -0.34 1.7 0 0 Z " fill="#EAE7E6" transform="translate(288,344)"/>
<path d="M0 0 C2.475 0.495 2.475 0.495 5 1 C5.66 3.31 6.32 5.62 7 8 C5.68 7.67 4.36 7.34 3 7 C3 6.34 3 5.68 3 5 C2.01 5 1.02 5 0 5 C0 3.35 0 1.7 0 0 Z " fill="#509A12" transform="translate(196,202)"/>
<path d="M0 0 C0.66 0.33 1.32 0.66 2 1 C1.67 1.66 1.34 2.32 1 3 C0.34 3 -0.32 3 -1 3 C-1 3.99 -1 4.98 -1 6 C-5.455 6.495 -5.455 6.495 -10 7 C-7.01767477 3.67356033 -4.13629913 1.70847138 0 0 Z " fill="#446F13" transform="translate(227,140)"/>
<path d="M0 0 C1.32 0 2.64 0 4 0 C4 0.66 4 1.32 4 2 C4.66 2 5.32 2 6 2 C7.42857143 10.57142857 7.42857143 10.57142857 5 14 C4.67 14 4.34 14 4 14 C4.01160156 13.31292969 4.02320313 12.62585938 4.03515625 11.91796875 C4.04417969 11.01691406 4.05320312 10.11585938 4.0625 9.1875 C4.07410156 8.29417969 4.08570313 7.40085937 4.09765625 6.48046875 C4.11009967 3.86586209 4.11009967 3.86586209 3 1 C2.01 0.67 1.02 0.34 0 0 Z " fill="#A6A6A5" transform="translate(308,344)"/>
<path d="M0 0 C0.99 0 1.98 0 3 0 C5.67927341 4.01891012 5.15601248 6.24161923 5 11 C4.01 10.67 3.02 10.34 2 10 C1.77213542 7.98177083 1.54427083 5.96354167 1.31640625 3.9453125 C1.08707039 1.92595684 1.08707039 1.92595684 0 0 Z " fill="#F9F7F8" transform="translate(185,345)"/>
<path d="M0 0 C0.33 1.32 0.66 2.64 1 4 C1.66 4 2.32 4 3 4 C3.33 2.68 3.66 1.36 4 0 C4 2.97 4 5.94 4 9 C3.67 8.34 3.34 7.68 3 7 C2.34 7 1.68 7 1 7 C1 7.66 1 8.32 1 9 C0.34 9 -0.32 9 -1 9 C-0.67 6.03 -0.34 3.06 0 0 Z " fill="#4B9B08" transform="translate(299,198)"/>
<path d="M0 0 C0.598125 0.350625 1.19625 0.70125 1.8125 1.0625 C1.8125 2.3825 1.8125 3.7025 1.8125 5.0625 C0.8225 5.3925 -0.1675 5.7225 -1.1875 6.0625 C-1.5175 5.4025 -1.8475 4.7425 -2.1875 4.0625 C-3.1775 3.4025 -4.1675 2.7425 -5.1875 2.0625 C-5.1875 1.4025 -5.1875 0.7425 -5.1875 0.0625 C-2.1875 -0.9375 -2.1875 -0.9375 0 0 Z " fill="#E1E0DE" transform="translate(294.1875,353.9375)"/>
<path d="M0 0 C0.33 0 0.66 0 1 0 C1.04898437 0.556875 1.09796875 1.11375 1.1484375 1.6875 C1.66555577 6.96567265 2.60462463 11.88362365 4 17 C2.68 16.67 1.36 16.34 0 16 C0 10.72 0 5.44 0 0 Z " fill="#A4A2A0" transform="translate(326,344)"/>
<path d="M0 0 C0.66 0 1.32 0 2 0 C2.33 1.32 2.66 2.64 3 4 C3.66 4 4.32 4 5 4 C5.99 6.31 6.98 8.62 8 11 C3.78926767 9.49616703 2.16762883 6.79335044 0 3 C0 2.01 0 1.02 0 0 Z " fill="#568128" transform="translate(201,218)"/>
<path d="M0 0 C0.66 0.66 1.32 1.32 2 2 C1.625 5.625 1.625 5.625 1 9 C-0.65 9.33 -2.3 9.66 -4 10 C-4 8 -4 8 -2 6 C-1.28591666 4.01643517 -0.61382258 2.01684563 0 0 Z " fill="#518F1B" transform="translate(298,182)"/>
<path d="M0 0 C1.11375 0.3403125 1.11375 0.3403125 2.25 0.6875 C1.92 2.0075 1.59 3.3275 1.25 4.6875 C0.59 4.6875 -0.07 4.6875 -0.75 4.6875 C-0.75 4.0275 -0.75 3.3675 -0.75 2.6875 C-2.73 3.3475 -4.71 4.0075 -6.75 4.6875 C-6.75 2.6875 -6.75 2.6875 -5.0625 1 C-2.75 -0.3125 -2.75 -0.3125 0 0 Z " fill="#43701C" transform="translate(232.75,146.3125)"/>
<path d="M0 0 C0.33 0.99 0.66 1.98 1 3 C0 4 0 4 -3.5625 4.0625 C-4.696875 4.041875 -5.83125 4.02125 -7 4 C-7 3.01 -7 2.02 -7 1 C-4 0 -4 0 0 0 Z " fill="#CDCBC9" transform="translate(354,343)"/>
<path d="M0 0 C1.98 0 3.96 0 6 0 C6 1.98 6 3.96 6 6 C5.01 6 4.02 6 3 6 C3 5.01 3 4.02 3 3 C2.01 3 1.02 3 0 3 C0 2.01 0 1.02 0 0 Z " fill="#F8F4F1" transform="translate(352,351)"/>
<path d="M0 0 C0.33 0 0.66 0 1 0 C1 2.64 1 5.28 1 8 C2.98 8 4.96 8 7 8 C7 8.33 7 8.66 7 9 C5.741875 9.020625 4.48375 9.04125 3.1875 9.0625 C2.47980469 9.07410156 1.77210938 9.08570313 1.04296875 9.09765625 C-1 9 -1 9 -4 8 C-4 7.34 -4 6.68 -4 6 C-3.01 5.67 -2.02 5.34 -1 5 C-0.67 3.35 -0.34 1.7 0 0 Z " fill="#427214" transform="translate(278,180)"/>
<path d="M0 0 C1.65 0.33 3.3 0.66 5 1 C5 2.32 5 3.64 5 5 C4.38125 4.814375 3.7625 4.62875 3.125 4.4375 C0.95839822 3.76313824 0.95839822 3.76313824 -1 5 C-1.66 4.34 -2.32 3.68 -3 3 C-2.34 3 -1.68 3 -1 3 C-0.67 2.01 -0.34 1.02 0 0 Z " fill="#48860D" transform="translate(273,146)"/>
<path d="M0 0 C0.99 0.33 1.98 0.66 3 1 C2.67 1.66 2.34 2.32 2 3 C1.34 3 0.68 3 0 3 C-0.66 4.32 -1.32 5.64 -2 7 C-2.99 6.67 -3.98 6.34 -5 6 C-5 5.34 -5 4.68 -5 4 C-4.01 4 -3.02 4 -2 4 C-2 3.01 -2 2.02 -2 1 C-1.34 0.67 -0.68 0.34 0 0 Z " fill="#457215" transform="translate(291,227)"/>
<path d="M0 0 C2.16874252 0.50603992 3.99967627 0.99983813 6 2 C6 3.32 6 4.64 6 6 C4.35 6 2.7 6 1 6 C0.67 4.02 0.34 2.04 0 0 Z " fill="#499A10" transform="translate(213,229)"/>
<path d="M0 0 C0.66 0 1.32 0 2 0 C2 1.32 2 2.64 2 4 C0.54077307 3.88590407 -0.91740598 3.75834456 -2.375 3.625 C-3.59316406 3.52058594 -3.59316406 3.52058594 -4.8359375 3.4140625 C-7 3 -7 3 -9 1 C-2.25 0.875 -2.25 0.875 0 2 C0 1.34 0 0.68 0 0 Z " fill="#3C611C" transform="translate(222,201)"/>
<path d="M0 0 C8.2173913 1.82608696 8.2173913 1.82608696 11 6 C6.48986609 5.46939601 3.61621781 3.69113883 0 1 C0 0.67 0 0.34 0 0 Z " fill="#518025" transform="translate(199,194)"/>
<path d="M0 0 C2.31 0 4.62 0 7 0 C7 0.33 7 0.66 7 1 C5.35 1 3.7 1 2 1 C2 2.65 2 4.3 2 6 C3.32 6.33 4.64 6.66 6 7 C4.02 7 2.04 7 0 7 C-0.93423645 3.98968256 -1.04449911 3.13349732 0 0 Z " fill="#5E8530" transform="translate(264,189)"/>
<path d="M0 0 C1.65 0 3.3 0 5 0 C4.4740625 0.804375 4.4740625 0.804375 3.9375 1.625 C2.71075751 4.73274763 3.27143569 6.79431703 4 10 C0.06153846 5.69230769 0.06153846 5.69230769 -0.25 2.1875 C-0.1675 1.465625 -0.085 0.74375 0 0 Z " fill="#4D7D21" transform="translate(266,146)"/>
<path d="M0 0 C0.66 0.33 1.32 0.66 2 1 C2 3.31 2 5.62 2 8 C1.01 8.33 0.02 8.66 -1 9 C-1.09765625 2.84765625 -1.09765625 2.84765625 -1 1 C-0.67 0.67 -0.34 0.34 0 0 Z " fill="#F9F7F7" transform="translate(145,347)"/>
<path d="M0 0 C1.2380014 3.57644848 0.74926071 6.33694766 0 10 C-0.99 10 -1.98 10 -3 10 C-2.25 3.375 -2.25 3.375 0 0 Z " fill="#4C751F" transform="translate(243,208)"/>
<path d="M0 0 C1.98 0.66 3.96 1.32 6 2 C6 2.66 6 3.32 6 4 C5.01 4.33 4.02 4.66 3 5 C2.67 5.99 2.34 6.98 2 8 C1.34 8 0.68 8 0 8 C0 5.36 0 2.72 0 0 Z " fill="#4C9D0D" transform="translate(268,214)"/>
<path d="M0 0 C1.32 0.66 2.64 1.32 4 2 C1.75 4.0625 1.75 4.0625 -1 6 C-3.3125 5.75 -3.3125 5.75 -5 5 C-3.35 3.35 -1.7 1.7 0 0 Z " fill="#437015" transform="translate(258,211)"/>
<path d="M0 0 C0.66 0.33 1.32 0.66 2 1 C1.88541307 2.43836751 1.75790884 3.87570966 1.625 5.3125 C1.55539062 6.11300781 1.48578125 6.91351563 1.4140625 7.73828125 C1 10 1 10 -1 13 C-1.0272415 11.58344207 -1.04650467 10.16672955 -1.0625 8.75 C-1.07410156 7.96109375 -1.08570313 7.1721875 -1.09765625 6.359375 C-1.00385306 4.09308998 -0.63241063 2.1711105 0 0 Z " fill="#4C7B20" transform="translate(304,197)"/>
<path d="M0 0 C0.33 0.66 0.66 1.32 1 2 C0.34 2 -0.32 2 -1 2 C-1 3.32 -1 4.64 -1 6 C-2.375 7.75 -2.375 7.75 -4 9 C-4.66 9 -5.32 9 -6 9 C-4.125 3.25 -4.125 3.25 -3 1 C-2.01 0.67 -1.02 0.34 0 0 Z " fill="#51881E" transform="translate(234,150)"/>
<path d="M0 0 C0.99 0.33 1.98 0.66 3 1 C5.14255793 0.61067144 5.14255793 0.61067144 7 0 C6.01 0.495 6.01 0.495 5 1 C3.86649466 3.01669827 3.86649466 3.01669827 3 5 C1.68 4.67 0.36 4.34 -1 4 C-0.67 2.68 -0.34 1.36 0 0 Z " fill="#999798" transform="translate(282,356)"/>
<path d="M0 0 C2.9375 0.75 2.9375 0.75 6 2 C6.33 3.32 6.66 4.64 7 6 C4.03 5.01 1.06 4.02 -2 3 C-1 1 -1 1 0 0 Z " fill="#437614" transform="translate(227,233)"/>
<path d="M0 0 C0 0.99 0 1.98 0 3 C-2.15634036 5.15634036 -4.37098712 6.47793991 -7 8 C-6.4376049 4.73810844 -5.5859495 3.08865152 -3 1 C-2.01 0.67 -1.02 0.34 0 0 Z " fill="#336114" transform="translate(246,203)"/>
<path d="M0 0 C0.99 0 1.98 0 3 0 C3.33 0.99 3.66 1.98 4 3 C2.68 4.32 1.36 5.64 0 7 C-0.99 6.67 -1.98 6.34 -3 6 C-2.34 5.67 -1.68 5.34 -1 5 C-0.34444881 2.47266765 -0.34444881 2.47266765 0 0 Z " fill="#599B1A" transform="translate(272,142)"/>
<path d="M0 0 C2.875 0.25 2.875 0.25 6 1 C7.375 3.0625 7.375 3.0625 8 5 C4.86248779 5 3.60242414 4.64820195 1 3 C0.67 2.01 0.34 1.02 0 0 Z " fill="#F5F4F3" transform="translate(305,344)"/>
<path d="M0 0 C1.32 0.66 2.64 1.32 4 2 C3.01 4.31 2.02 6.62 1 9 C0.67 9 0.34 9 0 9 C0 7.35 0 5.7 0 4 C-0.66 4 -1.32 4 -2 4 C-2 3.34 -2 2.68 -2 2 C-1.34 2 -0.68 2 0 2 C0 1.34 0 0.68 0 0 Z " fill="#406D12" transform="translate(235,211)"/>
<path d="M0 0 C0.99 0.33 1.98 0.66 3 1 C2.67 2.65 2.34 4.3 2 6 C1.01 6.33 0.02 6.66 -1 7 C-1 6.01 -1 5.02 -1 4 C-1.66 4 -2.32 4 -3 4 C-2.67 3.01 -2.34 2.02 -2 1 C-1.34 0.67 -0.68 0.34 0 0 Z " fill="#5D9B25" transform="translate(246,201)"/>
<path d="M0 0 C0.99 0.33 1.98 0.66 3 1 C3 3.31 3 5.62 3 8 C2.34 8 1.68 8 1 8 C0.34 5.69 -0.32 3.38 -1 1 C-0.67 0.67 -0.34 0.34 0 0 Z " fill="#489D09" transform="translate(275,188)"/>
<path d="M0 0 C1.5 1.25 1.5 1.25 3 3 C3 4.32 3 5.64 3 7 C3.66 7 4.32 7 5 7 C5 7.66 5 8.32 5 9 C3.125 8.375 3.125 8.375 1 7 C-0.25 3.875 -0.25 3.875 -1 1 C-0.67 0.67 -0.34 0.34 0 0 Z " fill="#4D8220" transform="translate(192,181)"/>
<path d="M0 0 C1.65 1.65 3.3 3.3 5 5 C4.67 5.66 4.34 6.32 4 7 C2.68 6.67 1.36 6.34 0 6 C0.33 5.01 0.66 4.02 1 3 C0.34 3 -0.32 3 -1 3 C-0.67 2.01 -0.34 1.02 0 0 Z " fill="#446F17" transform="translate(294,157)"/>
<path d="M0 0 C2.625 0.375 2.625 0.375 5 1 C5.625 3.3125 5.625 3.3125 6 6 C5.01 7.485 5.01 7.485 4 9 C2.875 4.25 2.875 4.25 4 2 C2.02 2 0.04 2 -2 2 C-1.34 1.34 -0.68 0.68 0 0 Z " fill="#7E7C78" transform="translate(354,349)"/>
<path d="M0 0 C1.76462683 3.08809695 2 4.23312136 2 8 C0.35 8 -1.3 8 -3 8 C-2.67 6.68 -2.34 5.36 -2 4 C-1.34 4 -0.68 4 0 4 C0 2.68 0 1.36 0 0 Z " fill="#D2D1CE" transform="translate(356,319)"/>
<path d="M0 0 C0.66 0.99 1.32 1.98 2 3 C1.34 3 0.68 3 0 3 C0 3.66 0 4.32 0 5 C0.99 5.33 1.98 5.66 3 6 C2.34 6 1.68 6 1 6 C0.67 6.66 0.34 7.32 0 8 C-0.99 8.33 -1.98 8.66 -3 9 C-2.01 6.03 -1.02 3.06 0 0 Z " fill="#A3A29D" transform="translate(299,295)"/>
<path d="M0 0 C1.30138849 2.60277697 1.4217343 4.11814893 1 7 C-1.5 8.8125 -1.5 8.8125 -4 10 C-3.52449439 8.51965236 -3.04448784 7.04074979 -2.5625 5.5625 C-2.29566406 4.73878906 -2.02882812 3.91507812 -1.75390625 3.06640625 C-1 1 -1 1 0 0 Z " fill="#A3A29E" transform="translate(200,257)"/>
<path d="M0 0 C0.33 0.66 0.66 1.32 1 2 C0.06553465 4.03144641 -0.93224776 6.03533587 -2 8 C-3.65 8 -5.3 8 -7 8 C-6.02133662 6.85373678 -5.04205413 5.70800212 -4.0625 4.5625 C-3.51722656 3.92441406 -2.97195313 3.28632813 -2.41015625 2.62890625 C-1.63204305 1.73008851 -0.84063472 0.84063472 0 0 Z " fill="#4A7620" transform="translate(288,220)"/>
<path d="M0 0 C0.33 0.66 0.66 1.32 1 2 C-1.64 2.66 -4.28 3.32 -7 4 C-7.33 3.01 -7.66 2.02 -8 1 C-5.29120665 -0.35439668 -2.99066732 -0.06501451 0 0 Z " fill="#FBF7F5" transform="translate(275,351)"/>
<path d="M0 0 C2.1875 0.3125 2.1875 0.3125 4 1 C4 1.66 4 2.32 4 3 C2.35 3.66 0.7 4.32 -1 5 C-1.66 4.34 -2.32 3.68 -3 3 C-1.75 1.4375 -1.75 1.4375 0 0 Z " fill="#AAA7A7" transform="translate(274,344)"/>
<path d="M0 0 C1.46726798 3.81489674 0.43336419 6.29011622 -1 10 C-1.66 9.34 -2.32 8.68 -3 8 C-2.625 5.375 -2.625 5.375 -2 3 C-1.34 3 -0.68 3 0 3 C0 2.01 0 1.02 0 0 Z " fill="#3F6715" transform="translate(260,196)"/>
<path d="M0 0 C0.66 0 1.32 0 2 0 C1.67 1.65 1.34 3.3 1 5 C0.01 5 -0.98 5 -2 5 C-2 2 -2 2 0 0 Z " fill="#4D990A" transform="translate(275,199)"/>
<path d="M0 0 C0.66 0.33 1.32 0.66 2 1 C1.67 3.97 1.34 6.94 1 10 C0.67 9.01 0.34 8.02 0 7 C-0.66 7 -1.32 7 -2 7 C-1.67 6.01 -1.34 5.02 -1 4 C-0.65772583 2.66893378 -0.32248257 1.33599921 0 0 Z " fill="#5B9B17" transform="translate(302,175)"/>
<path d="M0 0 C0.66 0.66 1.32 1.32 2 2 C1.34 2 0.68 2 0 2 C0 1.34 0 0.68 0 0 Z M-1 2 C-0.34 3.32 0.32 4.64 1 6 C0.34 6.66 -0.32 7.32 -1 8 C-1.99 6.68 -2.98 5.36 -4 4 C-3.01 3.34 -2.02 2.68 -1 2 Z " fill="#499A0A" transform="translate(237,148)"/>
<path d="M0 0 C1.65 0 3.3 0 5 0 C5.33 1.32 5.66 2.64 6 4 C4.02 4.33 2.04 4.66 0 5 C0.99 4.67 1.98 4.34 3 4 C3 3.34 3 2.68 3 2 C2.01 1.34 1.02 0.68 0 0 Z " fill="#A1A0A0" transform="translate(181,356)"/>
<path d="M0 0 C0.66 0 1.32 0 2 0 C2 1.32 2 2.64 2 4 C2.66 4 3.32 4 4 4 C4 4.66 4 5.32 4 6 C2.68 6 1.36 6 0 6 C-0.38218767 4.34385343 -0.71395102 2.67542976 -1 1 C-0.67 0.67 -0.34 0.34 0 0 Z " fill="#F7F5F4" transform="translate(214,350)"/>
<path d="M0 0 C1.65 0 3.3 0 5 0 C4.67 1.65 4.34 3.3 4 5 C2.68 4.34 1.36 3.68 0 3 C0 2.01 0 1.02 0 0 Z " fill="#F8F5F2" transform="translate(338,315)"/>
<path d="M0 0 C1.32 0.66 2.64 1.32 4 2 C3.01 3.98 2.02 5.96 1 8 C0.21944061 5.65832183 -0.51671752 3.4164124 -1 1 C-0.67 0.67 -0.34 0.34 0 0 Z " fill="#ABA7A4" transform="translate(194,297)"/>
<path d="M0 0 C0.95904856 3.83619425 0.91892116 5.32431536 0 9 C-0.99 9.33 -1.98 9.66 -3 10 C-2.01 6.7 -1.02 3.4 0 0 Z " fill="#979694" transform="translate(305,278)"/>
<path d="M0 0 C3.25543229 0.34879632 4.01873107 1.02133261 6.25 3.5625 C6.8275 4.366875 7.405 5.17125 8 6 C5 6 5 6 3.61328125 4.6875 C2.40885417 3.125 1.20442708 1.5625 0 0 Z " fill="#578E17" transform="translate(207,173)"/>
<path d="M0 0 C2.29633824 3.44450737 2.54016485 5.93812283 3 10 C0.9375 8.375 0.9375 8.375 -1 6 C-0.75 2.75 -0.75 2.75 0 0 Z " fill="#396019" transform="translate(227,159)"/>
<path d="M0 0 C0.66 0 1.32 0 2 0 C2.66 1.98 3.32 3.96 4 6 C2.68 6 1.36 6 0 6 C0 4.02 0 2.04 0 0 Z " fill="#4B9D11" transform="translate(288,156)"/>
<path d="M0 0 C0.99 0.495 0.99 0.495 2 1 C2 1.66 2 2.32 2 3 C2.99 3 3.98 3 5 3 C5 3.99 5 4.98 5 6 C5.66 6.33 6.32 6.66 7 7 C6.01 7 5.02 7 4 7 C0 2.65714286 0 2.65714286 0 0 Z " fill="#598F21" transform="translate(286,159)"/>
<path d="M0 0 C0.66 1.32 1.32 2.64 2 4 C1.01 4.495 1.01 4.495 0 5 C-0.33 5.66 -0.66 6.32 -1 7 C-1.99 5.35 -2.98 3.7 -4 2 C-2.68 2.33 -1.36 2.66 0 3 C0 2.01 0 1.02 0 0 Z " fill="#4E8B17" transform="translate(259,144)"/>
</svg>
